<svg id="Слой_1" data-name="Слой 1" xmlns="http://www.w3.org/2000/svg" viewBox="0 0 12.63 10.26"><defs><style>.cls-1{fill:#d35e69;}</style></defs><title>icon filter</title><g id="Сгруппировать_1299" data-name="Сгруппировать 1299"><path id="Прямоугольник_348" data-name="Прямоугольник 348" class="cls-1" d="M1.18,0H11.44a1.19,1.19,0,0,1,1.19,1.18h0a1.19,1.19,0,0,1-1.19,1.19H1.18A1.18,1.18,0,0,1,0,1.18H0A1.18,1.18,0,0,1,1.18,0Z" transform="translate(0 0)"/><path id="Прямоугольник_349" data-name="Прямоугольник 349" class="cls-1" d="M2.76,3.94h7.1a1.19,1.19,0,0,1,1.19,1.19h0A1.18,1.18,0,0,1,9.86,6.31H2.76A1.18,1.18,0,0,1,1.58,5.13h0A1.18,1.18,0,0,1,2.76,3.94Z" transform="translate(0 0)"/><path id="Прямоугольник_350" data-name="Прямоугольник 350" class="cls-1" d="M4.34,7.89H8.29A1.18,1.18,0,0,1,9.47,9.07h0a1.18,1.18,0,0,1-1.18,1.19H4.34A1.18,1.18,0,0,1,3.16,9.07h0A1.18,1.18,0,0,1,4.34,7.89Z" transform="translate(0 0)"/></g></svg>