<svg id="Capa_1" data-name="Capa 1" xmlns="http://www.w3.org/2000/svg" viewBox="0 0 21 20"><defs><style>.cls-1{fill:#5b7077;}</style></defs><title>Clock</title><path class="cls-1" d="M11.29,0A9.8,9.8,0,0,0,1.75,8.18H.44a.44.44,0,0,0-.4.26.48.48,0,0,0,.06.49l2.21,2.73a.44.44,0,0,0,.34.16A.46.46,0,0,0,3,11.66l2.2-2.73a.46.46,0,0,0,.06-.49.43.43,0,0,0-.4-.26H3.56a8,8,0,0,1,7.73-6.36,8.08,8.08,0,0,1,8,8.18,8.08,8.08,0,0,1-7.95,8.18,8,8,0,0,1-6.88-4.09.87.87,0,0,0-1.2-.33A.92.92,0,0,0,2.89,15a9.69,9.69,0,0,0,8.4,5A9.87,9.87,0,0,0,21,10,9.87,9.87,0,0,0,11.29,0Z"/><path class="cls-1" d="M11.69,4.47a.66.66,0,0,0-.66.67V9.39a1.2,1.2,0,0,0-.48.86L8.21,11.69a.69.69,0,0,0-.24.92.67.67,0,0,0,.57.34.66.66,0,0,0,.33-.09l2.33-1.44a1,1,0,0,0,.49.12,1.16,1.16,0,0,0,1.14-1.18,1.18,1.18,0,0,0-.49-1V5.14A.66.66,0,0,0,11.69,4.47Z"/></svg>