<svg xmlns="http://www.w3.org/2000/svg" width="15.001" height="14.999" viewBox="0 0 15.001 14.999">
  <g id="Векторный_смарт-объект_копия_copy_2" data-name="Векторный смарт-объект копия copy 2" transform="translate(0.286)">
    <g id="Векторный_смарт-объект_копия_copy_2-2" data-name="Векторный смарт-объект копия copy 2" transform="translate(0)">
      <g id="Group_150" data-name="Group 150" transform="translate(0 0.512)">
        <g id="Group_149" data-name="Group 149">
          <path id="Path_120" data-name="Path 120" d="M186.936,182.71a.545.545,0,0,0-.544.546v5.462a.545.545,0,0,1-.545.546h-9.8a.545.545,0,0,1-.544-.546V177.794a.545.545,0,0,1,.544-.546h6.531a.546.546,0,0,0,0-1.092h-6.531a1.635,1.635,0,0,0-1.632,1.638v10.924a1.636,1.636,0,0,0,1.632,1.639h9.8a1.636,1.636,0,0,0,1.633-1.639v-5.462A.545.545,0,0,0,186.936,182.71Z" transform="translate(-174.42 -176.156)" fill="#5b7077" stroke="#5b7077" stroke-width="0.572"/>
        </g>
      </g>
      <g id="Group_152" data-name="Group 152" transform="translate(4.578)">
        <g id="Group_151" data-name="Group 151">
          <path id="Path_121" data-name="Path 121" d="M188.618,176.148a1.793,1.793,0,0,0-2.494,0l-6.069,5.926a.461.461,0,0,0-.111.176l-.921,2.7a.448.448,0,0,0,.291.569.473.473,0,0,0,.291,0l2.765-.9a.457.457,0,0,0,.18-.109l6.069-5.927A1.694,1.694,0,0,0,188.618,176.148Z" transform="translate(-178.998 -175.644)" fill="#5b7077"/>
        </g>
      </g>
    </g>
    <path id="Color_Overlay" data-name="Color Overlay" d="M1.633,14.713A1.636,1.636,0,0,1,0,13.074V2.15A1.635,1.635,0,0,1,1.633.512h6.53a.546.546,0,0,1,0,1.092H1.633a.546.546,0,0,0-.544.546V13.074a.545.545,0,0,0,.544.545h9.795a.545.545,0,0,0,.545-.545V7.612a.544.544,0,1,1,1.088,0v5.462a1.636,1.636,0,0,1-1.634,1.639ZM4.893,9.876A.448.448,0,0,1,4.6,9.307l.922-2.7a.458.458,0,0,1,.111-.176L11.7.5A1.795,1.795,0,0,1,14.2.5a1.692,1.692,0,0,1,0,2.435L8.129,8.867a.461.461,0,0,1-.18.109l-2.765.9a.46.46,0,0,1-.145.022A.465.465,0,0,1,4.893,9.876Z" transform="translate(0 0)" fill="#5b7077"/>
  </g>
</svg>
