<svg id="Capa_1" data-name="Capa 1" xmlns="http://www.w3.org/2000/svg" viewBox="0 0 23 15"><defs><style>.cls-1{fill:#5b7077;}</style></defs><title>Eye</title><path class="cls-1" d="M22.85,7c-.2-.29-5.1-7-11.35-7S.35,6.75.15,7A.78.78,0,0,0,.15,8c.2.29,5.1,7,11.35,7S22.65,8.25,22.85,8A.78.78,0,0,0,22.85,7ZM11.5,13.45C6.89,13.45,2.9,9,1.72,7.5,2.9,6,6.88,1.55,11.5,1.55s8.59,4.48,9.78,6C20.1,9,16.12,13.45,11.5,13.45Z"/><path class="cls-1" d="M11.5,3.49a4,4,0,0,0-3.92,4,3.92,3.92,0,1,0,7.84,0A4,4,0,0,0,11.5,3.49Zm0,6.68A2.67,2.67,0,1,1,14.11,7.5,2.64,2.64,0,0,1,11.5,10.17Z"/></svg>