<svg id="Capa_1" data-name="Capa 1" xmlns="http://www.w3.org/2000/svg" viewBox="0 0 25 23.5"><defs><style>.cls-1{fill:#d35e69;}</style></defs><title> chat</title><path class="cls-1" d="M12.5,0A12.41,12.41,0,0,0,0,12.26V18A2.19,2.19,0,0,0,2.2,20.2h.73V13H2.2a2.31,2.31,0,0,0-.74.14v-.86a11,11,0,0,1,11-10.82,11,11,0,0,1,11,10.82v.86A2.31,2.31,0,0,0,22.8,13h-.73V20.2h.73A2.19,2.19,0,0,0,25,18V12.26A12.41,12.41,0,0,0,12.5,0Z"/><path class="cls-1" d="M6.59,11.54H5.86A1.46,1.46,0,0,0,4.39,13V20.2a1.46,1.46,0,0,0,1.47,1.44h.73a.72.72,0,0,0,.73-.72V12.26A.72.72,0,0,0,6.59,11.54Z"/><path class="cls-1" d="M19.14,11.54h-.73a.72.72,0,0,0-.73.72V20l-3.79,1.48a1.06,1.06,0,0,0-.57-.25,1.14,1.14,0,0,0-1.23,1,1.09,1.09,0,0,0,.25.81,1.18,1.18,0,0,0,.77.41h.11a1.13,1.13,0,0,0,1.12-1s0,0,0-.07l3.38-1.32a.72.72,0,0,0,.7.55h.73a1.46,1.46,0,0,0,1.47-1.44V13A1.46,1.46,0,0,0,19.14,11.54Z"/></svg>
