<svg id="Слой_1" data-name="Слой 1" xmlns="http://www.w3.org/2000/svg" viewBox="0 0 26.6 20"><defs><style>.cls-1{fill:#5b7077;}.cls-2{fill:#d35e69;}</style></defs><title>Menu</title><path class="cls-1" d="M7.37,1.67A1.16,1.16,0,0,1,8.53.5H24.94a1.17,1.17,0,0,1,0,2.34H8.53A1.16,1.16,0,0,1,7.37,1.67Z" transform="translate(0 0)"/><path class="cls-1" d="M24.94,3.34H8.53A1.67,1.67,0,0,1,8.53,0H24.94a1.67,1.67,0,0,1,0,3.34ZM8.53,1a.67.67,0,0,0,0,1.34H24.94a.67.67,0,0,0,0-1.34Z" transform="translate(0 0)"/><path class="cls-2" d="M2.26,10.06A1.16,1.16,0,0,1,3.42,8.89H24.94a1.17,1.17,0,0,1,0,2.34H3.42A1.17,1.17,0,0,1,2.26,10.06Z" transform="translate(0 0)"/><path class="cls-2" d="M24.94,11.6H3.42a1.55,1.55,0,0,1,0-3.09H24.94a1.55,1.55,0,0,1,0,3.09ZM3.42,9.26a.8.8,0,0,0-.79.8.79.79,0,0,0,.79.79H24.94a.79.79,0,0,0,.79-.79.8.8,0,0,0-.79-.8Z" transform="translate(0 0)"/><path class="cls-1" d="M7.37,18.33a1.16,1.16,0,0,1,1.16-1.17H24.94a1.17,1.17,0,0,1,0,2.34H8.53A1.16,1.16,0,0,1,7.37,18.33Z" transform="translate(0 0)"/><path class="cls-1" d="M24.94,20H8.53a1.67,1.67,0,0,1,0-3.34H24.94a1.67,1.67,0,0,1,0,3.34ZM8.53,17.66a.67.67,0,0,0,0,1.34H24.94a.67.67,0,0,0,0-1.34Z" transform="translate(0 0)"/><path class="cls-2" d="M4.76,14.82A1.14,1.14,0,0,1,4,14.5L.32,10.81a1.09,1.09,0,0,1,0-1.55L4.06,5.49A1.1,1.1,0,1,1,5.62,7l-3,3L5.54,13a1.1,1.1,0,0,1,0,1.55A1.05,1.05,0,0,1,4.76,14.82Z" transform="translate(0 0)"/></svg>