<svg width="125" height="50" xmlns="http://www.w3.org/2000/svg" xml:space="preserve" version="1.1">

 <g>
  <title>Layer 1</title>
  <g stroke="null" id="svg_1">
   <polygon stroke="null" id="svg_2" fill="#FFFFFF" points="0.04648865386843681,0 0,38.35213088989258 13.008831024169922,38.35213088989258 20.45286750793457,49.20000076293945 20.45286750793457,38.35213088989258 124.52336883544922,38.35213088989258 124.52336883544922,12.982967376708984 8.37372875213623,12.982967376708984 " class="st0"/>
   <polygon stroke="null" id="svg_3" fill="#D73E3F" points="51.205196380615234,27.43132972717285 54.27976608276367,27.43132972717285 52.75243377685547,22.86275863647461 " class="st1"/>
   <path stroke="null" id="svg_4" fill="#D73E3F" d="m19.38374,19.16944l-0.86991,0l0.02656,5.21838l0.83671,0c1.7863,0 3.79175,-0.33154 3.79175,-2.60588c0.00664,-2.28097 -1.9988,-2.61251 -3.78511,-2.61251" class="st1"/>
   <path stroke="null" id="svg_5" fill="#D73E3F" d="m124.52337,12.98297l-116.14964,0l-8.32723,-12.98297l-0.04648,38.35876l13.01545,0l7.44404,10.84124l0,-10.84124l104.0705,0l0,-25.3758l-0.00664,0zm-100.86977,23.34679l-5.08001,-6.72356l0.07305,13.44049l-3.05465,-4.68792l-7.92216,-12.16076l-0.05312,10.13175l-5.46516,0l0.04648,-23.34679l0.01328,-5.05261l10.77095,16.74922l0.02656,-5.34437l0,-4.32323l0.02656,0l5.46516,0l2.67614,0c4.15698,0 7.30459,1.96933 7.30459,6.43844c0,2.88437 -1.62029,5.38415 -4.60189,5.90798l6.81319,8.97138l-7.03897,0zm14.42989,-2.53294c-4.82103,0 -8.18778,-3.31536 -8.18778,-8.0696c0,-4.92 3.34683,-8.2221 8.32059,-8.2221c2.43044,0 4.3894,0.83547 5.76399,2.44011c0.4582,0.53709 0.84999,1.15375 1.17538,1.8566l-4.11713,2.08205l-0.11953,-0.31827c-0.51132,-1.35267 -1.56053,-2.12183 -2.88199,-2.12183c-1.73982,0 -3.5062,1.47865 -3.5062,4.30334c0,2.79817 1.79295,4.26356 3.56597,4.26356c1.46092,0 2.45036,-0.70286 2.70934,-1.90302l-3.04137,0.03315l-0.0332,-3.67342l8.26083,0l-0.00664,0.33154c-0.03984,2.12846 -0.18594,4.05137 -1.56717,5.98092c-1.41443,1.97596 -3.60581,3.01698 -6.33507,3.01698m37.00108,-0.48404l-0.96952,-7.59218l-3.18082,7.59218l-1.9656,0l-3.04137,-7.59218l-1.10897,7.59218l-3.93784,0l-0.54452,0l-4.23666,0l-0.95624,-2.5462l-4.82767,0l-1.016,2.5462l-4.76127,0l5.91672,-15.31698l4.6351,0l5.42532,14.32237l2.44372,-14.32237l4.26987,0l2.77574,7.27391l2.93512,-7.27391l4.30971,0l2.33083,15.31698l-4.49564,0zm9.8944,0l-4.48236,0l0,-15.31698l4.48236,0l0,15.31698zm17.22555,0l-4.31635,0l-6.57413,-8.41439l0,8.41439l-4.48236,0l0,-15.31698l4.31635,0l6.57413,8.40113l0,-8.40113l4.48236,0l0,15.31698zm17.15915,-8.50722c-0.03984,2.12846 -0.18594,4.05137 -1.56717,5.98092c-1.42108,1.97596 -3.61909,3.01698 -6.34171,3.01698c-4.82103,0 -8.18778,-3.31536 -8.18778,-8.0696c0,-4.92 3.34683,-8.2221 8.32059,-8.2221c2.43044,0 4.3894,0.83547 5.76399,2.44011c0.4582,0.53709 0.84999,1.15375 1.17538,1.8566l-4.11713,2.08205l-0.11953,-0.31827c-0.51132,-1.35267 -1.56053,-2.12183 -2.88199,-2.12183c-1.73982,0 -3.5062,1.47865 -3.5062,4.30334c0,2.79817 1.79295,4.26356 3.56597,4.26356c1.46092,0 2.45036,-0.70286 2.70934,-1.90302l-3.04801,0.03315l-0.0332,-3.67342l8.26083,0l0.00664,0.33154z" class="st1"/>
   <polygon stroke="null" id="svg_6" fill="#FFFFFF" points="27.106679916381836,42.953857421875 27.106679916381836,43.58378219604492 28.21565818786621,43.58378219604492 28.21565818786621,44.41262435913086 27.106679916381836,44.41262435913086 27.106679916381836,45.062435150146484 28.275421142578125,45.062435150146484 28.275421142578125,45.891273498535156 26.117244720458984,45.891273498535156 26.117244720458984,42.12501525878906 28.275421142578125,42.12501525878906 28.275421142578125,42.953857421875 " class="st1"/>
   <polygon stroke="null" id="svg_7" fill="#FFFFFF" points="33.501522064208984,42.12501525878906 34.48432540893555,42.12501525878906 36.29055404663086,44.425880432128906 36.29718017578125,44.425880432128906 36.29718017578125,42.12501525878906 37.27998733520508,42.12501525878906 37.27998733520508,45.891273498535156 36.29718017578125,45.891273498535156 34.49760055541992,43.58378219604492 34.48432540893555,43.58378219604492 34.48432540893555,45.891273498535156 33.501522064208984,45.891273498535156 " class="st1"/>
   <polygon stroke="null" id="svg_8" fill="#FFFFFF" points="43.52873611450195,42.953857421875 43.52873611450195,43.58378219604492 44.6376953125,43.58378219604492 44.6376953125,44.41262435913086 43.52873611450195,44.41262435913086 43.52873611450195,45.062435150146484 44.69747543334961,45.062435150146484 44.69747543334961,45.891273498535156 42.545928955078125,45.891273498535156 42.545928955078125,42.12501525878906 44.69747543334961,42.12501525878906 44.69747543334961,42.953857421875 " class="st1"/>
   <path stroke="null" id="svg_9" fill="#FFFFFF" d="m53.07783,45.89127l-1.22186,0l-0.92968,-1.45213l-0.01328,0l0,1.45213l-0.9828,0l0,-3.76625l1.4742,0c0.75038,0 1.31483,0.35806 1.31483,1.16038c0,0.5172 -0.29218,0.96809 -0.83007,1.06755l1.18866,1.53833zm-2.16482,-2.07542l0.09297,0c0.31875,0 0.68398,-0.05968 0.68398,-0.47078c0,-0.41111 -0.35859,-0.47078 -0.68398,-0.47078l-0.09297,0l0,0.94156z" class="st1"/>
   <path stroke="null" id="svg_10" fill="#FFFFFF" d="m61.73709,43.78933c-0.01328,0.55035 -0.05312,1.02113 -0.38515,1.49191c-0.37187,0.5172 -0.92968,0.74264 -1.56053,0.74264c-1.18866,0 -2.01872,-0.80232 -2.01872,-1.98922c0,-1.22668 0.83671,-2.029 2.05193,-2.029c0.77694,0 1.38123,0.35143 1.70662,1.05429l-0.93632,0.39121c-0.13281,-0.35806 -0.42499,-0.59677 -0.81679,-0.59677c-0.65077,0 -0.9828,0.61666 -0.9828,1.1869c0,0.5835 0.35195,1.18027 0.99608,1.18027c0.42499,0 0.75038,-0.21881 0.79022,-0.65644l-0.80351,0l0,-0.76916l1.95896,0l0,-0.00663z" class="st1"/>
   <path stroke="null" id="svg_11" fill="#FFFFFF" d="m67.77334,45.23483l-0.25898,0.65644l-1.04256,0l1.45428,-3.76625l1.07577,0l1.42772,3.76625l-1.0492,0l-0.2457,-0.65644l-1.36131,0zm0.69062,-1.94943l-0.01328,0l-0.40507,1.20016l0.81679,0l-0.39843,-1.20016z" class="st1"/>
   <polygon stroke="null" id="svg_12" fill="#FFFFFF" points="75.76853942871094,42.12501525878906 76.73807525634766,42.12501525878906 77.50835418701172,44.14076232910156 78.32514953613281,42.12501525878906 79.30130767822266,42.12501525878906 79.87238311767578,45.891273498535156 78.88960266113281,45.891273498535156 78.61068725585938,43.7230224609375 78.60406494140625,43.7230224609375 77.69429016113281,45.891273498535156 77.30250549316406,45.891273498535156 76.4325942993164,43.7230224609375 76.42596435546875,43.7230224609375 76.10721588134766,45.891273498535156 75.13105010986328,45.891273498535156 " class="st1"/>
   <rect stroke="null" id="svg_13" fill="#FFFFFF" height="3.76625" width="0.9828" class="st1" y="42.12502" x="84.91256"/>
   <polygon stroke="null" id="svg_14" fill="#FFFFFF" points="91.16130065917969,42.12501525878906 92.14410400390625,42.12501525878906 93.94368743896484,44.425880432128906 93.95697784423828,44.425880432128906 93.95697784423828,42.12501525878906 94.93976593017578,42.12501525878906 94.93976593017578,45.891273498535156 93.95697784423828,45.891273498535156 92.15074920654297,43.58378219604492 92.14410400390625,43.58378219604492 92.14410400390625,45.891273498535156 91.16130065917969,45.891273498535156 " class="st1"/>
   <path stroke="null" id="svg_15" fill="#FFFFFF" d="m103.97755,43.78933c-0.00664,0.55035 -0.05312,1.02113 -0.38515,1.49191c-0.37187,0.5172 -0.92968,0.74264 -1.56053,0.74264c-1.18866,0 -2.01872,-0.80232 -2.01872,-1.98922c0,-1.22668 0.83671,-2.029 2.05193,-2.029c0.77694,0 1.38123,0.35143 1.70662,1.05429l-0.93632,0.39121c-0.13281,-0.35806 -0.42499,-0.59677 -0.81679,-0.59677c-0.65077,0 -0.9828,0.61666 -0.9828,1.1869c0,0.5835 0.35195,1.18027 0.99608,1.18027c0.42499,0 0.75038,-0.21881 0.79022,-0.65644l-0.80351,0l0,-0.76916l1.95896,0l0,-0.00663z" class="st1"/>
  </g>
 </g>
</svg>