<svg width="50" height="50" xmlns="http://www.w3.org/2000/svg" xml:space="preserve" version="1.1">

 <g>
  <title>Layer 1</title>
  <g stroke="null" id="svg_1">
   <polygon stroke="null" id="svg_2" fill="#FFFFFF" points="1.4989355818780712,5.8076324462890625 7.773330416602334,14.075837135314941 48.66274338141841,14.075837135314941 49.08063255798072,36.811988830566406 19.06276146241464,36.811988830566406 18.494395441700476,45.438194274902344 8.447588829186428,29.91895866394043 8.832060221223513,35.98231506347656 1.4989355818780712,36.70967102050781 " class="st0"/>
   <path stroke="null" id="svg_3" fill="#D53C3D" d="m18.71172,18.97993l-0.83584,0l0.02786,5.1655l0.80798,0c1.72184,0 3.66099,-0.32959 3.66099,-2.57991s-1.93915,-2.58559 -3.66099,-2.58559" class="st1"/>
   <path stroke="null" id="svg_4" fill="#D73E3F" d="m50.33442,12.85407l-42.24904,0l-8.03523,-12.85407l-0.05015,37.96554l12.55992,0l7.18267,10.73446l0,-10.73446l30.5974,0l0,-25.11147l-0.00557,0zm-27.50478,23.10551l-4.90361,-6.66002l0.07244,13.303l-2.94774,-4.6427l-7.64517,-12.03578l-0.05572,10.02981l-5.27138,0l0.04458,-23.10551l0.01114,-5.57464l3.49382,5.57464l6.89848,11.00722l0.02786,-4.72225l0,-4.27901l0.02786,0l5.27138,0l2.58554,0c4.00647,0 7.04894,1.94914 7.04894,6.37021c0,2.85835 -1.56024,5.33029 -4.44111,5.84741l6.57529,8.87624l-6.79261,0l0,0.01137zm15.15103,0.02273c-6.0905,0 -10.34773,-4.30174 -10.34773,-10.46169c0,-6.37589 4.22936,-10.66058 10.52047,-10.66058c3.07033,0 5.54999,1.08538 7.28854,3.15953c0.57952,0.69328 1.07545,1.49453 1.4878,2.40375l-5.20451,2.69924l-0.15045,-0.40915c-0.64081,-1.75025 -1.97259,-2.75607 -3.64427,-2.75607c-2.20105,0 -4.42996,1.91504 -4.42996,5.58033c0,3.63119 2.26792,5.53487 4.50798,5.53487c1.85,0 3.09819,-0.90922 3.42695,-2.46625l-3.85045,0.03978l-0.03901,-4.76771l10.44246,0l-0.00557,0.4262c-0.05015,2.76175 -0.23404,5.25074 -1.97816,7.75677c-1.79985,2.56854 -4.57484,3.921 -8.02409,3.921" class="st2"/>
  </g>
 </g>
</svg>