<svg version="1.2" xmlns="http://www.w3.org/2000/svg" viewBox="0 0 14 12" width="14" height="12"><defs><clipPath clipPathUnits="userSpaceOnUse" id="cp1"><path d="m-242-13h1920v1899h-1920z"/></clipPath></defs><style>.a{fill:#db3d3e}</style><g clip-path="url(#cp1)"><path class="a" d="m3.4 7l2.6 2.5c0.3 0.4 0.3 1.1 0 1.4-0.4 0.4-1.1 0.4-1.5 0l-4.2-4.1c-0.2-0.2-0.3-0.5-0.3-0.8 0-0.3 0.1-0.6 0.3-0.8l4.2-4.1c0.4-0.4 1.1-0.4 1.5 0 0.3 0.3 0.3 1 0 1.4l-2.6 2.5h9.6c0.6 0 1 0.4 1 1 0 0.6-0.4 1-1 1z"/></g></svg>