<svg version="1.2" baseProfile="tiny-ps" xmlns="http://www.w3.org/2000/svg" viewBox="0 0 62 62" width="62" height="62">
	<title>Capa 1</title>
	<style>
		tspan { white-space:pre }
		.shp0 { fill: #5b7077;stroke: #5b7077;stroke-width: 2.25 } 
		.shp1 { fill: #5b7077 } 
	</style>
	<g id="Capa 1">
		<g id="&lt;Group&gt;">
			<g id="&lt;Group&gt;">
				<path id="&lt;Path&gt;" class="shp0" d="M51.09 30.19C49.91 30.19 48.95 31.15 48.95 32.33L48.95 53.76C48.95 54.95 47.99 55.91 46.81 55.91L8.24 55.91C7.05 55.91 6.1 54.95 6.1 53.76L6.1 10.91C6.1 9.72 7.05 8.76 8.24 8.76L33.95 8.76C35.14 8.76 36.1 7.8 36.1 6.62C36.1 5.44 35.14 4.48 33.95 4.48L8.24 4.48C4.69 4.48 1.81 7.36 1.81 10.91L1.81 53.76C1.81 57.31 4.69 60.19 8.24 60.19L46.81 60.19C50.36 60.19 53.24 57.31 53.24 53.76L53.24 32.33C53.24 31.15 52.28 30.19 51.09 30.19Z" />
			</g>
		</g>
		<g id="&lt;Group&gt;">
			<g id="&lt;Group&gt;">
				<path id="&lt;Path&gt;" class="shp1" d="M59.41 2.6C57.87 1.06 55.78 0.19 53.61 0.19C51.43 0.19 49.34 1.05 47.81 2.6L19.58 30.82C19.35 31.06 19.17 31.34 19.06 31.66L14.78 44.51C14.4 45.64 15.01 46.85 16.13 47.22C16.35 47.3 16.58 47.33 16.81 47.33C17.04 47.33 17.27 47.3 17.49 47.22L30.34 42.94C30.66 42.83 30.95 42.66 31.18 42.42L59.41 14.2C62.61 10.99 62.61 5.8 59.41 2.6Z" />
			</g>
		</g>
	</g>
</svg>