<?xml version="1.0" encoding="utf-8"?>
<!-- Generator: Adobe Illustrator 25.4.1, SVG Export Plug-In . SVG Version: 6.00 Build 0)  -->
<svg version="1.1" id="Layer_1" xmlns="http://www.w3.org/2000/svg" xmlns:xlink="http://www.w3.org/1999/xlink" x="0px" y="0px"
	 viewBox="0 0 150 150" style="enable-background:new 0 0 150 150;" xml:space="preserve">
<style type="text/css">
	.st0{fill:#E6E6E6;}
</style>
<g>
	<path class="st0" d="M76.4,0C33.9-0.8-0.8,33.9,0,76.4c0.7,40.1,33.5,72.8,73.6,73.6c42.5,0.8,77.2-33.9,76.4-76.4
		C149.2,33.5,116.5,0.8,76.4,0z M105.9,119.8l-29-21.1c-1.1-0.8-2.6-0.8-3.8,0l-29,21.1c-1.1,0.8-2.5-0.3-2.1-1.5l11.1-34.1
		c0.4-1.3,0-2.8-1.2-3.6l-29-21.1c-1.1-0.8-0.5-2.5,0.8-2.5h35.9c1.4,0,2.6-0.9,3.1-2.2l11.1-34.1c0.4-1.3,2.2-1.3,2.6,0l11.1,34.1
		c0.4,1.3,1.7,2.2,3.1,2.2h35.9c1.3,0,1.9,1.7,0.8,2.5l-29,21.1c-1.1,0.8-1.6,2.3-1.2,3.6l11.1,34.1
		C108.4,119.5,107,120.5,105.9,119.8z"/>
</g>
</svg>
