<svg id="Слой_1" data-name="Слой 1" xmlns="http://www.w3.org/2000/svg" viewBox="0 0 17 17"><defs><style>.cls-1{fill:#d35e69;}.cls-2{fill:none;}</style></defs><title>clock</title><g id="Сгруппировать_1297" data-name="Сгруппировать 1297"><path id="Color_Overlay" data-name="Color Overlay" class="cls-1" d="M7.08,10.75a.66.66,0,0,1-.66-.65h0V5.17a.65.65,0,0,1,1.3,0V9.45h3.56a.65.65,0,0,1,.11,1.3H7.08Z" transform="translate(0 0)"/><g id="Эллипс_16" data-name="Эллипс 16"><circle class="cls-2" cx="8.5" cy="8.5" r="8.5"/><path class="cls-1" d="M8.5,17A8.5,8.5,0,1,1,17,8.5,8.51,8.51,0,0,1,8.5,17Zm0-15.5a7,7,0,1,0,7,7A7,7,0,0,0,8.5,1.5Z" transform="translate(0 0)"/></g></g></svg>