<svg xmlns="http://www.w3.org/2000/svg" width="20.062" height="14" viewBox="0 0 20.062 14">
  <g id="Icon_view_outline" transform="translate(-0.966)">
    <path id="Shape" d="M10.033,14C3.606,14,.7,9.593.068,7.263L0,7.011l.063-.254C.648,4.42,3.485,0,10.033,0a10.781,10.781,0,0,1,7.219,2.5A8.7,8.7,0,0,1,20,6.757l.059.233-.054.235a8.559,8.559,0,0,1-2.762,4.347A10.889,10.889,0,0,1,10.033,14Zm0-12A8.819,8.819,0,0,0,4.318,3.844,6.892,6.892,0,0,0,2.076,6.989a7.35,7.35,0,0,0,2.254,3.122A8.714,8.714,0,0,0,10.033,12a8.927,8.927,0,0,0,5.747-1.81A6.571,6.571,0,0,0,18,7.01a6.961,6.961,0,0,0-2.232-3.153A8.813,8.813,0,0,0,10.033,2Z" transform="translate(0.966)" fill="#cbcdd1"/>
    <path id="Shape-2" data-name="Shape" d="M3,6A3,3,0,1,1,6,3,3,3,0,0,1,3,6ZM3,2A1,1,0,1,0,4,3,1,1,0,0,0,3,2Z" transform="translate(8 4)" fill="#cbcdd1"/>
  </g>
</svg>
