<svg id="Слой_1" data-name="Слой 1" xmlns="http://www.w3.org/2000/svg" viewBox="0 0 38 35.83"><defs><style>.cls-1,.cls-2{fill:#404e6b;}.cls-2{font-size:13.64px;font-family:Roboto-Bold, Roboto;font-weight:700;}</style></defs><title>PROFIT</title><path class="cls-1" d="M17.91,0A17.89,17.89,0,0,1,33.8,9.62l-2.35,1.23a15.26,15.26,0,1,0,.4,13.32l2.41,1.08A17.92,17.92,0,1,1,17.91,0Z"/><path class="cls-1" d="M24,15.58V13.13c0-1.17-.82-2.22-2.31-3a11.06,11.06,0,0,0-4.86-1,11.07,11.07,0,0,0-4.87,1c-1.49.75-2.31,1.8-2.31,3V22.7c0,1.17.82,2.22,2.31,3a11.21,11.21,0,0,0,4.87,1,11.84,11.84,0,0,0,3.86-.61,5.48,5.48,0,0,0,2.52.61A5.58,5.58,0,0,0,24,15.58ZM11.27,18.87a5.32,5.32,0,0,0,.71.42,11.21,11.21,0,0,0,4.87,1c.29,0,.57,0,.85,0a5.55,5.55,0,0,0-.06.82,4.9,4.9,0,0,0,.06.77c-.28,0-.57,0-.85,0-3.2,0-5.58-1.26-5.58-2.39Zm7-.24a12.44,12.44,0,0,1-1.37.08c-3.2,0-5.58-1.26-5.58-2.39v-.64a5.32,5.32,0,0,0,.71.42,11.07,11.07,0,0,0,4.87,1,12.73,12.73,0,0,0,2.81-.31A5.67,5.67,0,0,0,18.22,18.63Zm-1.37-7.89c3.19,0,5.58,1.26,5.58,2.39S20,15.52,16.85,15.52s-5.58-1.26-5.58-2.39S13.65,10.74,16.85,10.74Zm-5.58,12v-.64a5.32,5.32,0,0,0,.71.42,11.21,11.21,0,0,0,4.87,1c.44,0,.87,0,1.3-.07a5.84,5.84,0,0,0,1,1.44,11.79,11.79,0,0,1-2.26.22C13.65,25.09,11.27,23.83,11.27,22.7Zm12,2.39a4,4,0,0,1,0-8h0a4,4,0,0,1,0,8Z"/><text class="cls-2" transform="translate(30.18 22.06)">$</text></svg>