<svg id="Слой_1" data-name="Слой 1" xmlns="http://www.w3.org/2000/svg" viewBox="0 0 38 35.68"><defs><style>.cls-1,.cls-2{fill:#da7e86;}.cls-2{font-size:13.58px;font-family:Roboto-Bold, Roboto;font-weight:700;}</style></defs><title>BONUS BALANCE</title><path class="cls-1" d="M17.84,0A17.8,17.8,0,0,1,33.66,9.58l-2.33,1.23a15.21,15.21,0,1,0,.39,13.26l2.4,1.08A17.84,17.84,0,1,1,17.84,0Z"/><text class="cls-2" transform="translate(30.21 21.98)">$</text><path class="cls-1" d="M26.62,12.24h-3.9a4.88,4.88,0,0,0,.69-.55,2.56,2.56,0,1,0-3.62-3.63c-.54.53-2,2.72-1.76,4.18h-.09c.19-1.46-1.23-3.65-1.76-4.18a2.56,2.56,0,0,0-3.62,3.63,4.88,4.88,0,0,0,.69.55H9.34a1.23,1.23,0,0,0-1.23,1.23v3.09a.61.61,0,0,0,.61.62h.62v7.41a1.23,1.23,0,0,0,1.23,1.23H25.39a1.23,1.23,0,0,0,1.23-1.23V17.18h.62a.62.62,0,0,0,.62-.62V13.47A1.24,1.24,0,0,0,26.62,12.24ZM13.43,8.93a1.29,1.29,0,0,1,.94-.39,1.27,1.27,0,0,1,.93.39c.84.83,1.66,3,1.37,3.27a.39.39,0,0,1-.22,0,6.1,6.1,0,0,1-3-1.42A1.36,1.36,0,0,1,13.43,8.93Zm3.93,15.66H10.57V17.18h6.79Zm0-8.65h-8V13.47h8Zm3.3-7a1.33,1.33,0,0,1,1.87,1.89,6.11,6.11,0,0,1-3,1.42.41.41,0,0,1-.23,0C19,11.9,19.83,9.76,20.66,8.93Zm4.73,15.66H18.6V17.18h6.79Zm1.23-8.65h-8V13.47h8Z"/><path class="cls-1" d="M25.39,26.07H10.57a1.49,1.49,0,0,1-1.48-1.48V17.43H8.72a.86.86,0,0,1-.86-.87V13.47A1.48,1.48,0,0,1,9.34,12h3.17a.8.8,0,0,1-.13-.13,2.81,2.81,0,0,1,4-4A8.48,8.48,0,0,1,18,10.71a8.47,8.47,0,0,1,1.63-2.83,2.81,2.81,0,1,1,4,4,.8.8,0,0,1-.13.13h3.17a1.49,1.49,0,0,1,1.49,1.48v3.09a.87.87,0,0,1-.87.87h-.37v7.16A1.48,1.48,0,0,1,25.39,26.07Zm-16-13.58a1,1,0,0,0-1,1v3.09a.37.37,0,0,0,.36.37h.87v7.66a1,1,0,0,0,1,1H25.39a1,1,0,0,0,1-1V16.93h.87a.38.38,0,0,0,.37-.37V13.47a1,1,0,0,0-1-1H21.91l.67-.46a5.23,5.23,0,0,0,.65-.52A2.32,2.32,0,0,0,20,8.23c-.57.57-1.86,2.67-1.69,4l0,.28h-.66l0-.28c.17-1.31-1.12-3.41-1.69-4a2.32,2.32,0,0,0-1.63-.65,2.29,2.29,0,0,0-1.64,3.93,4.75,4.75,0,0,0,.66.52l.66.46Zm16.3,12.35H18.35V16.93h7.29Zm-6.79-.5h6.29V17.43H18.85Zm-1.24.5H10.32V16.93h7.29Zm-6.79-.5h6.29V17.43H10.82Zm16.05-8.15H18.35v-3h8.52Zm-8-.5h7.52v-2H18.85Zm-1.24.5H9.09v-3h8.52Zm-8-.5h7.52v-2H9.59Zm9.93-3.2a.64.64,0,0,1-.38-.09c-.5-.52.57-2.87,1.34-3.65h0A1.57,1.57,0,0,1,21.6,8.3h0a1.57,1.57,0,0,1,1.11.45,1.6,1.6,0,0,1,0,2.24A6.27,6.27,0,0,1,19.52,12.49Zm0-.5h0a5.79,5.79,0,0,0,2.83-1.35,1.08,1.08,0,0,0,0-1.54,1.06,1.06,0,0,0-.75-.3h0a1.08,1.08,0,0,0-.76.3A6,6,0,0,0,19.48,12Zm-3,.5A6.23,6.23,0,0,1,13.26,11a1.58,1.58,0,0,1,0-2.24h0a1.59,1.59,0,0,1,2.22,0c.78.78,1.85,3.14,1.37,3.62A.56.56,0,0,1,16.45,12.49ZM13.61,9.1a1.1,1.1,0,0,0,0,1.54A5.78,5.78,0,0,0,16.45,12h.05A6.2,6.2,0,0,0,15.13,9.1a1.09,1.09,0,0,0-1.52,0Z"/></svg>