<svg id="Слой_1" data-name="Слой 1" xmlns="http://www.w3.org/2000/svg" viewBox="0 0 38 36.81"><defs><style>.cls-1{fill:#20a9d6;}</style></defs><title>PLAYERS MAKING DEPOSIT</title><path class="cls-1" d="M19.59,36.81A18.35,18.35,0,0,1,3.27,26.93l2.41-1.26A15.69,15.69,0,1,0,5.28,12L2.8,10.87A18.41,18.41,0,1,1,19.59,36.81Z"/><path class="cls-1" d="M18.83,17.36a6.44,6.44,0,0,1-1.15-3.67A6.32,6.32,0,0,1,18.83,10a3.72,3.72,0,0,0-1.17-.18,3.85,3.85,0,0,0,0,7.7A4,4,0,0,0,18.83,17.36Zm7.82-3.67a3.85,3.85,0,1,0-3.85,3.85A3.85,3.85,0,0,0,26.65,13.69ZM10.09,24v2.57h3.85V24a4.65,4.65,0,0,1,1.64-3.64C13,20.76,10.09,22,10.09,24Zm5,0v2.57H30.5V24c0-2.56-5.14-3.85-7.7-3.85S15.1,21.39,15.1,24Z"/><rect class="cls-1" y="17.87" width="7.45" height="2.33" transform="translate(7.45 38.06) rotate(-180)"/><rect class="cls-1" y="17.87" width="7.45" height="2.33" transform="translate(-15.3 22.76) rotate(-90)"/></svg>