<svg id="Слой_1" data-name="Слой 1" xmlns="http://www.w3.org/2000/svg" viewBox="0 0 38 35.14"><defs><style>.cls-1{fill:#21abd9;}</style></defs><title>PLAYERS MAKING WITHDRAWALS</title><path class="cls-1" d="M20.43,35.14A17.53,17.53,0,0,1,4.85,25.7l2.3-1.2a15,15,0,1,0-.39-13.06L4.4,10.37a17.57,17.57,0,1,1,16,24.77Z"/><path class="cls-1" d="M19.61,16.57a6.14,6.14,0,0,1-1.11-3.5,6,6,0,0,1,1.11-3.51,3.75,3.75,0,0,0-1.12-.17,3.68,3.68,0,0,0,0,7.35A3.75,3.75,0,0,0,19.61,16.57Zm7.45-3.5a3.67,3.67,0,1,0-3.67,3.67A3.67,3.67,0,0,0,27.06,13.07Zm-15.8,9.79v2.45h3.68V22.86a4.4,4.4,0,0,1,1.57-3.47C14,19.81,11.26,21,11.26,22.86Zm4.78,0v2.45h14.7V22.86c0-2.45-4.9-3.67-7.35-3.67S16,20.41,16,22.86Z"/><rect class="cls-1" y="16.17" width="9.49" height="2.81"/></svg>