<svg id="Слой_1" data-name="Слой 1" xmlns="http://www.w3.org/2000/svg" viewBox="0 0 38 33.69"><defs><style>.cls-1{fill:#a1586c;}</style></defs><title>PLAYERS LOGGED IN</title><path class="cls-1" d="M20.66,11.67a3.79,3.79,0,1,0-3.79,3.79A3.79,3.79,0,0,0,20.66,11.67ZM9.29,21.77V24.3H24.45V21.77c0-2.52-5.06-3.79-7.58-3.79S9.29,19.25,9.29,21.77Z"/><path class="cls-1" d="M16.85,0A16.81,16.81,0,0,1,31.78,9.05l-2.2,1.15A14.35,14.35,0,1,0,30,22.73l2.27,1A16.85,16.85,0,1,1,16.85,0Z"/><polygon class="cls-1" points="30.18 19.44 26.66 15.37 28.5 13.78 30.49 16.07 36.48 11.29 38 13.19 30.18 19.44"/></svg>