<svg id="Слой_1" data-name="Слой 1" xmlns="http://www.w3.org/2000/svg" viewBox="0 0 40 35.31"><defs><style>.cls-1{fill:#ad5f74;}</style></defs><title>PLAYERS REGISTERED</title><path class="cls-1" d="M18.63,16.53a6.35,6.35,0,0,1-1.13-3.59,6.12,6.12,0,0,1,1.13-3.58,3.83,3.83,0,0,0-1.14-.18,3.76,3.76,0,0,0,0,7.52A3.83,3.83,0,0,0,18.63,16.53Zm7.63-3.59A3.76,3.76,0,1,0,22.5,16.7,3.76,3.76,0,0,0,26.26,12.94ZM10.09,23v2.5h3.76V23a4.52,4.52,0,0,1,1.61-3.56C12.94,19.85,10.09,21,10.09,23ZM15,23v2.5H30V23c0-2.51-5-3.76-7.52-3.76S15,20.46,15,23Z"/><rect class="cls-1" y="16.74" width="6.84" height="2.14" transform="translate(6.84 35.63) rotate(-180)"/><rect class="cls-1" y="16.74" width="6.84" height="2.14" transform="translate(-14.39 21.24) rotate(-90)"/><rect class="cls-1" x="33.16" y="16.74" width="6.84" height="2.14" transform="translate(73.16 35.63) rotate(-180)"/><rect class="cls-1" x="33.16" y="16.74" width="6.84" height="2.14" transform="translate(18.76 54.39) rotate(-90)"/><path class="cls-1" d="M20,35.31A17.67,17.67,0,0,1,3.32,23.45L6,22.53a14.84,14.84,0,0,0,28,0l2.67.93A17.66,17.66,0,0,1,20,35.31Z"/><path class="cls-1" d="M34.11,13.11a14.83,14.83,0,0,0-28.22,0l-2.7-.87a17.67,17.67,0,0,1,33.62,0Z"/></svg>