<svg id="Слой_1" data-name="Слой 1" xmlns="http://www.w3.org/2000/svg" viewBox="0 0 38 36.03"><defs><style>.cls-1{fill:#8865a8;}</style></defs><title>TOTAL LOGIN COUNT</title><path class="cls-1" d="M20,36A18,18,0,0,1,4,26.35l2.36-1.23A15.35,15.35,0,1,0,6,11.72L3.55,10.63A18,18,0,1,1,20,36Z"/><rect class="cls-1" y="17.41" width="8.92" height="2.43" transform="translate(-14.17 23.08) rotate(-90)"/><rect class="cls-1" y="17.41" width="8.92" height="2.43"/><path class="cls-1" d="M16.31,20.79l4.76-2.27a.18.18,0,0,0,0-.34L16.31,15.9a.33.33,0,0,0-.24,0,.19.19,0,0,0-.12.18v1.05H11.84a.22.22,0,0,0-.24.2v2a.22.22,0,0,0,.24.2H16v1.06a.18.18,0,0,0,.12.17.25.25,0,0,0,.24,0Z"/><path class="cls-1" d="M25.56,9.43H18a.36.36,0,0,0-.37.37v1.12a.37.37,0,0,0,.37.37h7.6a.89.89,0,0,1,.89.89V24.52a.89.89,0,0,1-.89.89H18a.36.36,0,0,0-.37.37V26.9a.37.37,0,0,0,.37.37h7.6a2.76,2.76,0,0,0,2.76-2.75V12.18A2.76,2.76,0,0,0,25.56,9.43Z"/><path class="cls-1" d="M25.56,27.4H18a.51.51,0,0,1-.5-.5V25.78a.5.5,0,0,1,.5-.5h7.6a.77.77,0,0,0,.77-.76V12.18a.77.77,0,0,0-.77-.76H18a.51.51,0,0,1-.5-.5V9.8a.5.5,0,0,1,.5-.5h7.6a2.88,2.88,0,0,1,2.88,2.88V24.52A2.89,2.89,0,0,1,25.56,27.4ZM18,25.53a.25.25,0,0,0-.25.25V26.9a.25.25,0,0,0,.25.25h7.6a2.63,2.63,0,0,0,2.63-2.63V12.18a2.63,2.63,0,0,0-2.63-2.63H18a.25.25,0,0,0-.25.25v1.12a.25.25,0,0,0,.25.25h7.6a1,1,0,0,1,1,1V24.52a1,1,0,0,1-1,1Z"/></svg>