<svg id="Слой_1" data-name="Слой 1" xmlns="http://www.w3.org/2000/svg" viewBox="0 0 38 35.83"><defs><style>.cls-1,.cls-2{fill:#7d7c3e;}.cls-2{font-size:13.64px;font-family:Roboto-Bold, Roboto;font-weight:700;}</style></defs><title>PLAYERS BALANCE</title><path class="cls-1" d="M17.92,0A17.87,17.87,0,0,1,33.8,9.63l-2.34,1.22a15.28,15.28,0,1,0,.39,13.32l2.42,1.09A17.92,17.92,0,1,1,17.92,0Z"/><path class="cls-1" d="M16.31,16.9a6.31,6.31,0,0,1-1.12-3.58,6.18,6.18,0,0,1,1.12-3.57,3.75,3.75,0,1,0,0,7.15Zm7.61-3.58a3.74,3.74,0,1,0-3.75,3.75A3.74,3.74,0,0,0,23.92,13.32Zm-16.11,10v2.49h3.75V23.32a4.52,4.52,0,0,1,1.59-3.55C10.64,20.21,7.81,21.39,7.81,23.32Zm4.87,0v2.49h15V23.32c0-2.5-5-3.75-7.5-3.75S12.68,20.82,12.68,23.32Z"/><text class="cls-2" transform="translate(30.18 22.1)">$</text></svg>