<svg version="1.2" xmlns="http://www.w3.org/2000/svg" viewBox="0 0 44 44" width="44" height="44"><defs><clipPath clipPathUnits="userSpaceOnUse" id="cp1"><path d="m-1018-163h1920v1899h-1920z"/></clipPath></defs><style>.A{fill:#5773a8}</style><g clip-path="url(#cp1)"><path fill-rule="evenodd" class="A" d="m40.5 11.8l-9.8-8.2 2.8-3.2 9.7 8.1zm-36.9 0l-2.8-3.2 9.8-8.2 2.7 3.3zm37.6 12.2c0 10.5-8.6 19.1-19.1 19.1-10.6 0-19.1-8.6-19.1-19.1 0-10.6 8.5-19.1 19.1-19.1 10.5 0 19.1 8.5 19.1 19.1zm-4.3 0c0-8.2-6.6-14.9-14.8-14.9-8.2 0-14.9 6.7-14.9 14.9 0 8.2 6.7 14.8 14.9 14.8 8.2 0 14.8-6.6 14.8-14.8zm-13.8 0.5l8.5 5-1.6 2.6-10.1-6v-12.7h3.2z"/></g></svg>