<svg xmlns="http://www.w3.org/2000/svg" width="31" height="31" viewBox="0 0 31 31">
                      <g id="Group_2059" data-name="Group 2059" transform="translate(-315 -324)">
                        <path id="ic_exit_to_app_24px" d="M30.556,3H6.444A3.443,3.443,0,0,0,3,6.444v6.889H6.444V6.444H30.556V30.556H6.444V23.667H3v6.889A3.443,3.443,0,0,0,6.444,34H30.556A3.455,3.455,0,0,0,34,30.556V6.444A3.455,3.455,0,0,0,30.556,3Z" transform="translate(349 321) rotate(90)" fill="#5773a8"/>
                        <path id="ic_attach_money_24px" d="M14.086,14.2c-3.217-.836-4.251-1.7-4.251-3.047,0-1.545,1.431-2.622,3.826-2.622,2.523,0,3.458,1.2,3.543,2.976h3.132a5.649,5.649,0,0,0-4.549-5.4V3H11.535V6.061c-2.749.6-4.96,2.381-4.96,5.116,0,3.274,2.707,4.9,6.661,5.853,3.543.85,4.251,2.1,4.251,3.415,0,.978-.694,2.537-3.826,2.537-2.919,0-4.067-1.3-4.223-2.976H6.32c.17,3.1,2.494,4.847,5.215,5.428v3.075h4.251V25.462c2.763-.524,4.96-2.126,4.96-5.031C20.747,16.406,17.3,15.032,14.086,14.2Z" transform="translate(316.967 321)" fill="#5773a8"/>
                      </g>
                    </svg>