<svg version="1.2" xmlns="http://www.w3.org/2000/svg" viewBox="0 0 31 31" width="31" height="31"><defs><clipPath clipPathUnits="userSpaceOnUse" id="cp1"><path d="m-1530-322h1920v1899h-1920z"/></clipPath></defs><style>.a{fill:#5773a8}</style><g clip-path="url(#cp1)"><path fill-rule="evenodd" class="a" d="m3.4 0h24.2c1.8 0 3.4 1.5 3.4 3.4v24.2c0 1.9-1.6 3.4-3.4 3.4h-6.9v-3.4h6.9v-24.2h-24.2v24.2h6.9v3.4h-6.9c-1.9 0-3.4-1.5-3.4-3.4v-24.2c0-1.9 1.5-3.4 3.4-3.4zm13.8 14.3v16.7h-3.4v-16.7l-4.5 4.5-2.4-2.4 8.6-8.7 8.6 8.7-2.4 2.4z"/></g></svg>