<svg version="1.2" xmlns="http://www.w3.org/2000/svg" viewBox="0 0 15 15" width="15" height="15"><defs><clipPath clipPathUnits="userSpaceOnUse" id="cp1"><path d="m-1762-78h1920v1899h-1920z"/></clipPath></defs><style>.A{fill:#5773a8}</style><g clip-path="url(#cp1)"><path class="A" d="m14.8 9.1c0 0.9-0.7 1.7-1.7 1.7h-1v2.7c0 0.7-0.6 1.3-1.3 1.3h-2.6v-1c0-1-0.8-1.8-1.8-1.8c-1 0-1.8 0.8-1.8 1.8v1h-2.6c-0.7 0-1.3-0.6-1.3-1.3v-2.6h1c1 0 1.8-0.8 1.8-1.8c0-1-0.8-1.8-1.8-1.8h-1v-2.6c0-0.7 0.6-1.3 1.3-1.3h2.7v-1.1c0-0.9 0.8-1.6 1.7-1.6c0.9 0 1.7 0.7 1.7 1.6v1.1h2.7c0.7 0 1.3 0.6 1.3 1.3v2.7h1c1 0 1.7 0.8 1.7 1.7z"/></g></svg>