<svg version="1.2" xmlns="http://www.w3.org/2000/svg" viewBox="0 0 32 32" width="32" height="32"><defs><clipPath clipPathUnits="userSpaceOnUse" id="cp1"><path d="m-316-168h1920v1899h-1920z"/></clipPath></defs><style>.A{fill:#5773a8}</style><g clip-path="url(#cp1)"><path fill-rule="evenodd" class="A" d="m23.6 7.9c0 4.3-3.6 7.8-7.9 7.8c-4.3 0-7.8-3.5-7.8-7.8c0-4.4 3.5-7.9 7.8-7.9c4.3 0 7.9 3.5 7.9 7.9zm7.8 17.6v5.9h-31.4v-5.9c0-5.2 10.5-7.8 15.7-7.8c5.2 0 15.7 2.6 15.7 7.8zm-19.8-17.6c0 2.2 1.8 4.1 4.1 4.1c2.3 0 4.1-1.9 4.1-4.1c0-2.3-1.8-4.2-4.1-4.2c-2.3 0-4.1 1.9-4.1 4.2zm-7.9 17.6v2.2h24v-2.2c0-1.2-6.2-4.1-12-4.1c-5.8 0-12 2.9-12 4.1z"/></g></svg>