<svg id="Capa_1" data-name="Capa 1" xmlns="http://www.w3.org/2000/svg" viewBox="0 0 20 20"><defs><style>.cls-1{fill:#5b7077;}</style></defs><title>Setting</title><path class="cls-1" d="M19.41,7.85H17.76A8.25,8.25,0,0,0,17,6l1.18-1.17a.6.6,0,0,0,0-.83L16,1.82a.6.6,0,0,0-.83,0L14,3a8.25,8.25,0,0,0-1.82-.76V.59A.58.58,0,0,0,11.56,0H8.44a.58.58,0,0,0-.59.59V2.24A8,8,0,0,0,6,3L4.86,1.82a.6.6,0,0,0-.83,0L1.82,4a.6.6,0,0,0,0,.83L3,6a8.25,8.25,0,0,0-.76,1.82H.59A.58.58,0,0,0,0,8.44v3.12a.58.58,0,0,0,.59.59H2.24A8.25,8.25,0,0,0,3,14L1.82,15.14a.6.6,0,0,0,0,.83L4,18.18a.6.6,0,0,0,.83,0L6,17a8.25,8.25,0,0,0,1.82.76v1.65a.58.58,0,0,0,.59.59h3.12a.58.58,0,0,0,.59-.59V17.76A8.25,8.25,0,0,0,14,17l1.17,1.18a.6.6,0,0,0,.83,0L18.18,16a.6.6,0,0,0,0-.83L17,14a8.25,8.25,0,0,0,.76-1.82h1.65a.58.58,0,0,0,.59-.59V8.44A.58.58,0,0,0,19.41,7.85ZM10,14.49A4.49,4.49,0,1,1,14.49,10,4.49,4.49,0,0,1,10,14.49Z"/></svg>