<svg id="Capa_1" data-name="Capa 1" xmlns="http://www.w3.org/2000/svg" viewBox="0 0 32.12 15.87"><defs><style>.cls-1{fill:#72747c;}</style></defs><title>Users</title><polygon class="cls-1" points="4.57 4.99 6 4.99 5.28 2.71 4.57 4.99"/><path class="cls-1" d="M8.05,0H2.68L0,4.59l2.68,4.6H8.05l2.69-4.6ZM6.77,7.44,6.38,6.21H4.19L3.8,7.44H2.09L4.53.86H6L8.49,7.44Z"/><path class="cls-1" d="M18.84,6.68H13.47l-2.69,4.59,2.69,4.6h5.37l2.68-4.6Zm-.21,7a2.27,2.27,0,0,1-1,.82,3.4,3.4,0,0,1-1.42.29,2.6,2.6,0,0,1-2.06-.85,3.47,3.47,0,0,1-.75-2.38v-.33a3.89,3.89,0,0,1,.34-1.69,2.53,2.53,0,0,1,1-1.12A2.8,2.8,0,0,1,16.23,8a2.89,2.89,0,0,1,1.95.63A2.5,2.5,0,0,1,19,10.37h-1.6a1.16,1.16,0,0,0-.31-.86,1.24,1.24,0,0,0-.88-.26.94.94,0,0,0-.87.44,2.7,2.7,0,0,0-.29,1.41v.47a3.09,3.09,0,0,0,.26,1.5,1,1,0,0,0,.92.46,1.27,1.27,0,0,0,.85-.26,1.11,1.11,0,0,0,.31-.82H19A2.33,2.33,0,0,1,18.63,13.66Z"/><path class="cls-1" d="M29.44,0H24.07L21.39,4.59l2.68,4.6h5.37l2.68-4.6ZM29.2,7.44H24.81V.86h1.6V6.22H29.2Z"/></svg>