<svg version="1.2" xmlns="http://www.w3.org/2000/svg" viewBox="0 0 21 20" width="21" height="20"><defs><clipPath clipPathUnits="userSpaceOnUse" id="cp1"><path d="m-28-476h1920v1899h-1920z"/></clipPath></defs><style>.a{fill:#72747c}</style><g clip-path="url(#cp1)"><path fill-rule="evenodd" class="a" d="m14.9 6.6c-1.6 0-3-1.3-3-3 0-1.6 1.4-3 3-3 1.7 0 3 1.4 3 3 0 1.7-1.3 3-3 3zm0-4c-0.5 0-1 0.5-1 1 0 0.6 0.5 1 1 1 0.6 0 1-0.4 1-1 0-0.5-0.4-1-1-1z"/><path fill-rule="evenodd" class="a" d="m5.9 12.6c-1.6 0-3-1.3-3-3 0-1.6 1.4-3 3-3 1.7 0 3 1.4 3 3 0 1.7-1.3 3-3 3zm0-4c-0.5 0-1 0.5-1 1 0 0.6 0.5 1 1 1 0.6 0 1-0.4 1-1 0-0.5-0.4-1-1-1z"/><path fill-rule="evenodd" class="a" d="m14.9 19.6c-1.6 0-3-1.3-3-3 0-1.6 1.4-3 3-3 1.7 0 3 1.4 3 3 0 1.7-1.3 3-3 3zm0-4c-0.5 0-1 0.5-1 1 0 0.6 0.5 1 1 1 0.6 0 1-0.4 1-1 0-0.5-0.4-1-1-1z"/><path class="a" d="m0.9 3.8c0-0.6 0.5-1 1.1-1h10.7c0.6 0 1.1 0.4 1.1 1 0 0.6-0.5 1.1-1.1 1.1h-10.7c-0.6 0-1.1-0.5-1.1-1.1z"/><path class="a" d="m7.4 10.3c0-0.6 0.4-1.1 1-1.1h10.7c0.6 0 1.1 0.5 1.1 1.1 0 0.5-0.5 1-1.1 1h-10.7c-0.6 0-1-0.5-1-1z"/><path class="a" d="m0.9 10.3c0-0.6 0.5-1.1 1.1-1.1h2.2c0.5 0 1 0.5 1 1.1 0 0.5-0.5 1-1 1h-2.2c-0.6 0-1.1-0.5-1.1-1z"/><path class="a" d="m15.9 3.8c0-0.6 0.5-1 1.1-1h2.1c0.6 0 1.1 0.4 1.1 1 0 0.6-0.5 1.1-1.1 1.1h-2.1c-0.6 0-1.1-0.5-1.1-1.1z"/><path class="a" d="m15.9 16.7c0-0.6 0.5-1.1 1.1-1.1h2.1c0.6 0 1.1 0.5 1.1 1.1 0 0.6-0.5 1-1.1 1h-2.1c-0.6 0-1.1-0.4-1.1-1z"/><path class="a" d="m0.9 16.7c0-0.6 0.5-1.1 1.1-1.1h10.7c0.6 0 1.1 0.5 1.1 1.1 0 0.6-0.5 1-1.1 1h-10.7c-0.6 0-1.1-0.4-1.1-1z"/></g></svg>