<svg version="1.2" xmlns="http://www.w3.org/2000/svg" viewBox="0 0 19 19" width="19" height="19"><defs><clipPath clipPathUnits="userSpaceOnUse" id="cp1"><path d="m-29-111h1920v1899h-1920z"/></clipPath></defs><style>.a{fill:#72747c}</style><g clip-path="url(#cp1)"><path fill-rule="evenodd" class="a" d="m7 18h-3c-1.1 0-2-0.9-2-2v-3c0-1.1 0.9-2 2-2h3c1.1 0 2 0.9 2 2v3c0 1.1-0.9 2-2 2zm-3-5v3h3v-3z"/><path fill-rule="evenodd" class="a" d="m7 9h-5c-1.1 0-2-0.9-2-2v-5c0-1.1 0.9-2 2-2h5c1.1 0 2 0.9 2 2v5c0 1.1-0.9 2-2 2zm-5-7v5h5v-5z"/><path fill-rule="evenodd" class="a" d="m16 18h-3c-1.1 0-2-0.9-2-2v-3c0-1.1 0.9-2 2-2h3c1.1 0 2 0.9 2 2v3c0 1.1-0.9 2-2 2zm-3-5v3h3v-3z"/><path fill-rule="evenodd" class="a" d="m16 9h-3c-1.1 0-2-0.9-2-2v-3c0-1.1 0.9-2 2-2h3c1.1 0 2 0.9 2 2v3c0 1.1-0.9 2-2 2zm-3-5v3h3v-3z"/></g></svg>