<svg id="Слой_1" data-name="Слой 1" xmlns="http://www.w3.org/2000/svg" viewBox="0 0 30.26 21.25"><defs><style>.cls-1{fill:#a3bcde;stroke-width:0.25px;}.cls-1,.cls-2{stroke:#a3bcde;stroke-miterlimit:10;}.cls-2{fill:none;stroke-width:1.3px;}</style></defs><title>Players</title><path class="cls-1" d="M9.22.16A5.41,5.41,0,0,0,4.89,4.33a5.66,5.66,0,0,0,.05,2.09,5.36,5.36,0,0,0,3.93,3.82,5,5,0,0,0,1.43.13c.17,0,.17,0,0-.95l0-.24H9.84a3.84,3.84,0,0,1-3.76-3,4.8,4.8,0,0,1,.13-2.29A3.66,3.66,0,0,1,8.14,1.72a4,4,0,0,1,3.55,0l.46.22.32-.48.32-.49L12.66.85A7.63,7.63,0,0,0,11.32.29,8,8,0,0,0,9.22.16Z"/><path class="cls-1" d="M19.26.22c-.7.14-1.76.6-1.73.74a3.45,3.45,0,0,0,.3.5l.28.44.46-.22a4,4,0,0,1,3.56,0,3.69,3.69,0,0,1,1.93,2.17,5,5,0,0,1,.13,2.27A3.77,3.77,0,0,1,21.73,9a2.89,2.89,0,0,1-1.13.2l-.66,0,0,.39c0,.21-.05.46-.07.57s0,.19.12.22a5.24,5.24,0,0,0,5.47-4.62A5.22,5.22,0,0,0,22.1.45,5.39,5.39,0,0,0,19.26.22Z"/><path class="cls-1" d="M5.67,9.72a10.22,10.22,0,0,0-5.47,8l-.07.51.22.31c.26.37.18.34,1.52.61a15.58,15.58,0,0,0,2.79.39,7.45,7.45,0,0,0,.14-1.06A4,4,0,0,0,4,18.28c-.42-.06-1.19-.19-1.72-.29l-.95-.18,0-.24a10.52,10.52,0,0,1,.93-3,8.38,8.38,0,0,1,3.78-3.78l.69-.33-.21-.54a2.92,2.92,0,0,0-.25-.53Z"/><path class="cls-1" d="M23.68,9.94l-.21.54.53.25a8.66,8.66,0,0,1,4.78,6.39,4.55,4.55,0,0,1,.1.68s-1.88.37-2.59.47a5.48,5.48,0,0,0-.8.13,1.83,1.83,0,0,0,0,.59l.07.55.2,0c.72-.06,2.95-.46,3.7-.65a.77.77,0,0,0,.42-.37l.22-.31-.07-.54A13,13,0,0,0,29.37,15a9.88,9.88,0,0,0-4.69-5.22C23.83,9.34,23.92,9.33,23.68,9.94Z"/><path class="cls-1" d="M10.92,11a8.59,8.59,0,0,0-2.53,1.82,9.5,9.5,0,0,0-1.92,2.61,11.34,11.34,0,0,0-1.14,3.86c0,.23,0,.27.42.84A19.1,19.1,0,0,0,8,20.55a38.22,38.22,0,0,0,6.35.57,40.54,40.54,0,0,0,8.79-.72c1.45-.28,1.4-.26,1.65-.62l.21-.31L24.91,19a11.08,11.08,0,0,0-1.8-4.78,11.17,11.17,0,0,0-2.58-2.6,9.27,9.27,0,0,0-1.79-.94s-.44,1.06-.43,1.07l.63.3a8.26,8.26,0,0,1,3.81,3.78,10.17,10.17,0,0,1,.81,2.32c.16.78.18.88.12.92s-.45.1-.93.2a42.84,42.84,0,0,1-13.59.28,22.24,22.24,0,0,1-2.58-.5,5.66,5.66,0,0,1,.27-1.5,8.54,8.54,0,0,1,4.48-5.5l.62-.3a7.08,7.08,0,0,0-.44-1.07Z"/><circle class="cls-2" cx="15.13" cy="6.52" r="4.54"/></svg>