<svg id="Слой_1" data-name="Слой 1" xmlns="http://www.w3.org/2000/svg" viewBox="0 0 28.5 27.5"><defs><style>.cls-1{fill:#72747c;stroke:#72747c;stroke-miterlimit:10;stroke-width:0.5px;}</style></defs><title>Promotional tools</title><path class="cls-1" d="M22.09,5.67A3.23,3.23,0,0,0,23,3.47,3.19,3.19,0,0,0,19.79.25c-1.31,0-4.34,2-5.55,3.73C13,2.22,10,.31,8.71.31A3.19,3.19,0,0,0,5.55,3.52a3.29,3.29,0,0,0,.8,2.15H.25v7.68H1.92v13.9H26.59V13.36h1.66V5.67Zm-2.3-4.23a2,2,0,0,1,2,2.09,2.07,2.07,0,0,1-1.61,2.05H15.31c-.31-.09-.4-.2-.4-.26,0-1,3.57-3.88,4.88-3.88Zm-11.08,0c1.25,0,4.88,2.86,4.88,3.88,0,.09-.21.19-.36.26H8.36A2.07,2.07,0,0,1,6.75,3.53a2,2,0,0,1,2-2.09Zm2,24.62H3.11V13.36h7.56Zm0-13.83H1.44V6.87h9.24v5.36Zm6,13.83H11.86V6.86h4.77Zm8.76,0H17.82V13.36h7.57Zm1.66-13.83H17.82V6.87h9.24v5.36Z"/></svg>