<?xml version="1.0" encoding="utf-8"?>
<!-- Generator: Adobe Illustrator 23.0.1, SVG Export Plug-In . SVG Version: 6.00 Build 0)  -->
<svg version="1.1" id="Слой_1" xmlns="http://www.w3.org/2000/svg" xmlns:xlink="http://www.w3.org/1999/xlink" x="0px" y="0px"
	 viewBox="0 0 30 30" style="enable-background:new 0 0 30 30;" xml:space="preserve">
<style type="text/css">
	.st0{fill:none;stroke:#A3BCDE;stroke-width:2;stroke-miterlimit:10;}
	.st1{fill:#A3BCDE;}
</style>
<g>
	<path class="st0" d="M18.4,29H4c-1.7,0-3-1.3-3-3V4c0-1.7,1.3-3,3-3h22c1.7,0,3,1.3,3,3v15.1"/>
	<circle class="st1" cx="6.5" cy="7" r="1.5"/>
	<circle class="st1" cx="6.5" cy="14" r="1.5"/>
	<circle class="st1" cx="6.5" cy="21" r="1.5"/>
	<path class="st1" d="M21.5,8.5h-10C10.7,8.5,10,7.8,10,7v0c0-0.8,0.7-1.5,1.5-1.5h10C22.3,5.5,23,6.2,23,7v0
		C23,7.8,22.3,8.5,21.5,8.5z"/>
	<path class="st1" d="M21.5,15.5h-10c-0.8,0-1.5-0.7-1.5-1.5v0c0-0.8,0.7-1.5,1.5-1.5h10c0.8,0,1.5,0.7,1.5,1.5v0
		C23,14.8,22.3,15.5,21.5,15.5z"/>
	<path class="st1" d="M18,22.5c0.1-1.2,0.6-2.3,1.6-2.9l0,0h-8.4c-0.7,0-1.2,0.7-1.2,1.5s0.5,1.5,1.2,1.5L18,22.5L18,22.5z"/>
	<g>
		<g id="surface1_1_">
			<g>
				<path class="st1" d="M26.3,25.4c1.3-1.8,0.8-4.3-1-5.6s-4.3-0.8-5.6,1c-1.3,1.8-0.8,4.3,1,5.6c1.3,0.9,3,1,4.3,0.2l2.9,2.9
					c0.3,0.3,0.8,0.3,1.2,0c0.3-0.3,0.3-0.8,0-1.2c0,0,0,0,0,0L26.3,25.4z M23.1,25.7c-1.4,0-2.6-1.2-2.6-2.6c0-1.4,1.2-2.6,2.6-2.6
					c1.4,0,2.6,1.1,2.6,2.6C25.7,24.5,24.5,25.7,23.1,25.7C23.1,25.7,23.1,25.7,23.1,25.7z"/>
			</g>
		</g>
	</g>
</g>
</svg>
