<?xml version="1.0" encoding="utf-8"?>
<!-- Generator: Adobe Illustrator 23.0.1, SVG Export Plug-In . SVG Version: 6.00 Build 0)  -->
<svg version="1.1" id="Layer_1" xmlns="http://www.w3.org/2000/svg" xmlns:xlink="http://www.w3.org/1999/xlink" x="0px" y="0px"
	 viewBox="0 0 30 30" style="enable-background:new 0 0 30 30;" xml:space="preserve">
<style type="text/css">
	.st0{fill:#72747c;}
</style>
<g>
	<path class="st0" d="M15.1,7c-2.6,0-4.7,2.1-4.7,4.7s2.1,4.7,4.7,4.7s4.7-2.1,4.7-4.7S17.7,7,15.1,7z M15.1,15
		c-1.8,0-3.2-1.5-3.2-3.2c0-1.8,1.5-3.2,3.2-3.2c1.8,0,3.2,1.5,3.2,3.2C18.3,13.5,16.9,15,15.1,15z"/>
	<path class="st0" d="M29.2,14.2h-0.8C28,7.4,22.5,1.9,15.7,1.6V0.7C15.7,0.3,15.4,0,15,0s-0.7,0.3-0.7,0.7v0.8
		C7.5,1.9,2.1,7.3,1.6,14.1H0.8c-0.4,0-0.7,0.3-0.7,0.7s0.3,0.7,0.7,0.7h0.8C1.9,22.4,7.4,28,14.3,28.3v0.8c0,0.4,0.3,0.7,0.7,0.7
		s0.7-0.3,0.7-0.7v-0.8C22.5,28,28,22.5,28.4,15.7h0.8c0.4,0,0.7-0.3,0.7-0.7C30,14.5,29.6,14.2,29.2,14.2z M15,25.3
		c-0.4,0-0.7,0.3-0.7,0.7v0.8c-2.1-0.1-4-0.8-5.6-1.8v-3.3c0-0.3,0.2-0.6,0.4-0.8l4-2.5c0.7,0.3,2.4,0.7,4.2,0l3.7,2.5
		c0.3,0.2,0.4,0.5,0.4,0.8V25c-1.7,1-3.6,1.7-5.6,1.8V26C15.7,25.7,15.4,25.3,15,25.3z M22.9,23.9v-2.2c0-0.8-0.4-1.6-1.1-2
		l-4.4-2.9L17,16.9c-1.8,0.9-3.6,0-3.7,0l-0.4-0.2l-4.7,2.9c-0.7,0.4-1.1,1.2-1.1,2.1v2.2c-2.3-2.1-3.9-5-4-8.4h0.8
		c0.4,0,0.7-0.3,0.7-0.7s-0.3-0.7-0.7-0.7H3.1c0.4-5.9,5.2-10.6,11.1-11v0.8c0,0.4,0.3,0.7,0.7,0.7s0.7-0.3,0.7-0.7V3.1
		c6,0.4,10.8,5.2,11.2,11.2H26c-0.4,0-0.7,0.3-0.7,0.7s0.3,0.7,0.7,0.7h0.8C26.7,19,25.2,21.9,22.9,23.9z"/>
</g>
</svg>
