<svg id="Capa_1" data-name="Capa 1" xmlns="http://www.w3.org/2000/svg" viewBox="0 0 30 21.92"><defs><style>.cls-1,.cls-2{fill:#a3bcde;}.cls-2{stroke:#a3bcde;stroke-miterlimit:10;}</style></defs><title>Sportsbook</title><path class="cls-1" d="M11.54,5.25a.46.46,0,0,0-.63-.13.47.47,0,0,0-.12.63,2.71,2.71,0,0,1,.48,1.56,2.8,2.8,0,1,1-2.8-2.8,2.91,2.91,0,0,1,1.16.25.45.45,0,0,0,.59-.22.46.46,0,0,0-.22-.6,3.81,3.81,0,0,0-1.53-.32,3.69,3.69,0,1,0,3.07,1.63Z"/><path class="cls-1" d="M10,6.86H8.92V5.8a.45.45,0,1,0-.9,0V6.86H7a.45.45,0,0,0-.45.45A.45.45,0,0,0,7,7.76H8V8.83a.45.45,0,0,0,.9,0V7.76H10a.45.45,0,0,0,.45-.45A.45.45,0,0,0,10,6.86Z"/><path class="cls-1" d="M12.07,12.09H4.88a.45.45,0,0,0-.45.45.45.45,0,0,0,.45.45h7.19a.45.45,0,0,0,.45-.45A.45.45,0,0,0,12.07,12.09Z"/><path class="cls-1" d="M25.3,12.09H18.11a.45.45,0,0,0-.45.45.46.46,0,0,0,.45.45H25.3a.45.45,0,0,0,.45-.45A.45.45,0,0,0,25.3,12.09Z"/><path class="cls-1" d="M11.19,14.43H5.75a.45.45,0,1,0,0,.9h5.44a.45.45,0,1,0,0-.9Z"/><path class="cls-1" d="M24.26,14.43h-5.1a.45.45,0,0,0,0,.9h5.1a.45.45,0,1,0,0-.9Z"/><path class="cls-2" d="M29,.5H17.7A3.18,3.18,0,0,0,15,2a3.4,3.4,0,0,0-.66-.76,3.16,3.16,0,0,0-2-.74H1A.49.49,0,0,0,.5,1V18.91a.49.49,0,0,0,.48.48h9.6a3.11,3.11,0,0,1,2.28.68,1.13,1.13,0,0,1,.36.83.5.5,0,0,0,.13.37.48.48,0,0,0,.36.15h2.58a.49.49,0,0,0,.35-.15.52.52,0,0,0,.14-.35,1.3,1.3,0,0,1,.37-.83,3.21,3.21,0,0,1,2.33-.7H29a.49.49,0,0,0,.48-.48V1A.49.49,0,0,0,29,.5Zm-.48,17.92H19.48a4.08,4.08,0,0,0-3,1,2.29,2.29,0,0,0-.57,1h-.4V14.84a.48.48,0,0,0-1,0v5.61h-.38a2.25,2.25,0,0,0-.56-1,3.94,3.94,0,0,0-3-1H1.46v-17H12.3A2.24,2.24,0,0,1,13.72,2a2.19,2.19,0,0,1,.8,1.7h0v9.23a.48.48,0,0,0,1,0V3.68A2.23,2.23,0,0,1,17.7,1.46H28.54Z"/><path class="cls-1" d="M21.65,4A3.26,3.26,0,1,0,24.9,7.23,3.26,3.26,0,0,0,21.65,4Zm.81,4.67H20.83L20,7.23l.82-1.41h1.63l.82,1.41Z"/></svg>