<?xml version="1.0" encoding="utf-8"?>
<!-- Generator: Adobe Illustrator 23.0.1, SVG Export Plug-In . SVG Version: 6.00 Build 0)  -->
<svg version="1.1" id="Layer_1" xmlns="http://www.w3.org/2000/svg" xmlns:xlink="http://www.w3.org/1999/xlink" x="0px" y="0px"
	 viewBox="0 0 30 30" style="enable-background:new 0 0 30 30;" xml:space="preserve">
<style type="text/css">
	.st0{fill:#9CBDDE;}
</style>
<g>
	<path class="st0" d="M23.4,30h-5.3c-0.5,0-0.8-0.3-0.8-0.7c0-1.3-1.2-2.4-2.6-2.4s-2.6,1.1-2.6,2.4c0,0.4-0.4,0.7-0.8,0.7H6.1
		c-1.5,0-2.8-1.1-2.8-2.5v-25C3.3,1.1,4.5,0,6.1,0h5.3c0.5,0,0.8,0.3,0.8,0.7c0,1.3,1.2,2.4,2.6,2.4s2.6-1.1,2.6-2.4
		c0-0.4,0.4-0.7,0.8-0.7h5.3c1.5,0,2.8,1.1,2.8,2.5v25C26.1,28.9,24.9,30,23.4,30z M18.8,28.5h4.5c0.6,0,1.1-0.5,1.1-1v-25
		c0-0.6-0.5-1-1.1-1h-4.5c-0.4,1.8-2.1,3.1-4.1,3.1S11,3.3,10.6,1.5H6.1C5.5,1.5,5,2,5,2.5v25c0,0.6,0.5,1,1.1,1h4.5
		c0.4-1.8,2.1-3.1,4.1-3.1S18.5,26.7,18.8,28.5z"/>
</g>
<g>
	<path class="st0" d="M19.5,18.7H9.9c-0.4,0-0.7-0.3-0.7-0.7s0.3-0.7,0.7-0.7h9.6c0.4,0,0.7,0.3,0.7,0.7S19.9,18.7,19.5,18.7z"/>
</g>
<g>
	<path class="st0" d="M19.5,22.9H9.9c-0.4,0-0.7-0.3-0.7-0.7s0.3-0.7,0.7-0.7h9.6c0.4,0,0.7,0.3,0.7,0.7S19.9,22.9,19.5,22.9z"/>
</g>
<g>
	<path class="st0" d="M14.7,14.3c-0.2,0-0.4-0.1-0.5-0.2l-2.3-2.3c-0.3-0.3-0.3-0.8,0-1.1s0.8-0.3,1.1,0l1.6,1.6l2.7-4.6
		c0.2-0.4,0.7-0.5,1-0.3c0.4,0.2,0.5,0.7,0.3,1l-3.2,5.4C15.2,14.1,15,14.2,14.7,14.3L14.7,14.3z"/>
</g>
</svg>
