<?xml version="1.0" encoding="utf-8"?>
<!-- Generator: Adobe Illustrator 23.0.1, SVG Export Plug-In . SVG Version: 6.00 Build 0)  -->
<svg version="1.1" id="Layer_1" xmlns="http://www.w3.org/2000/svg" xmlns:xlink="http://www.w3.org/1999/xlink" x="0px" y="0px"
	 viewBox="0 0 30 30" style="enable-background:new 0 0 30 30;" xml:space="preserve">
<style type="text/css">
	.st0{fill:#9CBDDE;}
</style>
<title>statistics</title>
<path class="st0" d="M28.4,29.4H1.6c-0.6,0-1.1-0.5-1.1-1.1c0,0,0,0,0,0V2C0.5,1.4,1,1,1.6,1S2.6,1.4,2.6,2v25.2h25.8
	c0.6,0,1.1,0.5,1.1,1.1S29,29.4,28.4,29.4z"/>
<path class="st0" d="M10.9,24.7H5.9c-0.3,0-0.6-0.3-0.6-0.6c0,0,0,0,0,0v-8.3c0-1.2,1-2.3,2.3-2.3l0,0h1.8c1.3,0,2.3,1,2.3,2.3v8.3
	C11.6,24.5,11.3,24.7,10.9,24.7C10.9,24.7,10.9,24.7,10.9,24.7z M6.5,23.5h3.8v-7.7c0-0.5-0.4-1-1-1H7.5c-0.5,0-1,0.4-1,1L6.5,23.5z
	"/>
<path class="st0" d="M18.7,24.7h-5.1c-0.3,0-0.6-0.3-0.6-0.6c0,0,0,0,0,0V9.9c0-1.2,1-2.3,2.3-2.3l0,0H17c1.2,0,2.3,1,2.3,2.3l0,0
	v14.2C19.3,24.4,19,24.7,18.7,24.7C18.7,24.7,18.7,24.7,18.7,24.7z M14.2,23.5H18V9.9c0-0.5-0.4-1-1-1h-1.8c-0.5,0-1,0.4-1,1
	L14.2,23.5z"/>
<path class="st0" d="M26.6,24.7h-5.1c-0.3,0-0.6-0.3-0.6-0.6c0,0,0,0,0,0V4.4c0-1.2,1-2.3,2.3-2.3l0,0H25c1.3,0,2.3,1,2.3,2.3v19.7
	C27.3,24.5,27,24.7,26.6,24.7C26.6,24.7,26.6,24.7,26.6,24.7z M22.2,23.5H26V4.4c0-0.5-0.4-1-1-1h-1.8c-0.5,0-1,0.4-1,1L22.2,23.5z"
	/>
</svg>
