<svg id="Capa_1" data-name="Capa 1" xmlns="http://www.w3.org/2000/svg" viewBox="0 0 27.75 24.91"><defs><style>.cls-1{fill:#a3bcde;}</style></defs><title>Financials</title><path class="cls-1" d="M14.21,6.14H5.54a.46.46,0,0,0,0,.92h8.67a.46.46,0,1,0,0-.92Z" transform="translate(0 0)"/><path class="cls-1" d="M14.21,7.44H5.54a.84.84,0,0,1,0-1.68h8.67a.84.84,0,0,1,0,1.68ZM5.54,6.51a.09.09,0,0,0,0,.18h8.67a.09.09,0,0,0,0-.18Z" transform="translate(0 0)"/><path class="cls-1" d="M14.21,8.92H5.54a.47.47,0,0,0,0,.93h8.67a.47.47,0,1,0,0-.93Z" transform="translate(0 0)"/><path class="cls-1" d="M14.21,10.23H5.54a.84.84,0,0,1,0-1.68h8.67a.84.84,0,0,1,0,1.68ZM5.54,9.3a.09.09,0,0,0,0,.18h8.67a.09.09,0,0,0,0-.18Z" transform="translate(0 0)"/><path class="cls-1" d="M21.62,6.14h-3.1a.46.46,0,1,0,0,.92h3.1a.46.46,0,1,0,0-.92Z" transform="translate(0 0)"/><path class="cls-1" d="M21.62,7.44h-3.1a.84.84,0,1,1,0-1.68h3.1a.84.84,0,1,1,0,1.68Zm-3.1-.93a.09.09,0,0,0,0,.18h3.1a.09.09,0,1,0,0-.18Z" transform="translate(0 0)"/><path class="cls-1" d="M21.62,8.92h-3.1a.47.47,0,1,0,0,.93h3.1a.47.47,0,0,0,0-.93Z" transform="translate(0 0)"/><path class="cls-1" d="M21.62,10.23h-3.1a.84.84,0,0,1,0-1.68h3.1a.84.84,0,0,1,0,1.68Zm-3.1-.93a.09.09,0,0,0,0,.18h3.1a.09.09,0,0,0,0-.18Z" transform="translate(0 0)"/><path class="cls-1" d="M13.59,14.93H6.16a1.24,1.24,0,0,0-1.23,1.24V18a1.24,1.24,0,0,0,1.23,1.24h7.43A1.24,1.24,0,0,0,14.83,18V16.17A1.24,1.24,0,0,0,13.59,14.93Zm0,3.41H6.16A.33.33,0,0,1,5.85,18V16.17a.32.32,0,0,1,.31-.31h7.43a.31.31,0,0,1,.31.31V18h0A.32.32,0,0,1,13.59,18.34Z" transform="translate(0 0)"/><path class="cls-1" d="M13.59,19.64H6.16A1.61,1.61,0,0,1,4.55,18V16.17a1.61,1.61,0,0,1,1.61-1.61h7.43a1.62,1.62,0,0,1,1.62,1.61V18A1.62,1.62,0,0,1,13.59,19.64ZM6.16,15.31a.86.86,0,0,0-.86.86V18a.87.87,0,0,0,.86.86h7.43a.87.87,0,0,0,.87-.86V16.17a.86.86,0,0,0-.87-.86Zm7.43,3.4H6.16A.68.68,0,0,1,5.48,18V16.17a.69.69,0,0,1,.68-.69h7.43a.69.69,0,0,1,.69.69V18A.68.68,0,0,1,13.59,18.71Zm-.06-2.54-7.37.06L6.23,18l7.3-.07ZM13.59,18Z" transform="translate(0 0)"/><path class="cls-1" d="M26,.38H23.11v.71a.71.71,0,0,1-1.42,0V.38H18.85v.71a.71.71,0,0,1-1.42,0V.38H14.59v.71a.72.72,0,0,1-1.43,0V.38H10.32v.71a.71.71,0,1,1-1.42,0V.38H6.06v.71a.71.71,0,0,1-1.42,0V.38H1.8A1.41,1.41,0,0,0,.38,1.8V23.11A1.42,1.42,0,0,0,1.8,24.53H26a1.43,1.43,0,0,0,1.43-1.42V1.8A1.42,1.42,0,0,0,26,.38Zm0,23.09H1.44V1.8a.36.36,0,0,1,.36-.36H3.61a1.78,1.78,0,0,0,3.48,0h.78a1.78,1.78,0,0,0,3.48,0h.78a1.79,1.79,0,0,0,1.74,1.42,1.77,1.77,0,0,0,1.74-1.42h.79a1.77,1.77,0,0,0,1.74,1.42,1.79,1.79,0,0,0,1.74-1.42h.78a1.78,1.78,0,0,0,3.48,0H26a.36.36,0,0,1,.36.36V23.11h0A.36.36,0,0,1,26,23.47Z" transform="translate(0 0)"/><path class="cls-1" d="M26,24.91H1.8A1.81,1.81,0,0,1,0,23.11V1.8A1.81,1.81,0,0,1,1.8,0H5V1.09a.34.34,0,0,0,.67,0V0h3.6V1.09a.34.34,0,0,0,.67,0V0h3.59V1.09a.34.34,0,0,0,.67,0V0H17.8V1.09a.34.34,0,0,0,.67,0V0h3.6V1.09a.34.34,0,0,0,.67,0V0H26a1.81,1.81,0,0,1,1.8,1.8V23.11A1.81,1.81,0,0,1,26,24.91ZM1.8.75a1,1,0,0,0-1,1.05V23.11A1,1,0,0,0,1.8,24.16H26A1,1,0,0,0,27,23.11V1.8A1,1,0,0,0,26,.75H23.49v.34a1.09,1.09,0,0,1-2.17,0V.75h-2.1v.34a1.09,1.09,0,0,1-2.17,0V.75H15v.34a1.09,1.09,0,0,1-2.17,0V.75H10.7v.34a1.09,1.09,0,0,1-2.17,0V.75H6.43v.34a1.09,1.09,0,0,1-2.17,0V.75ZM26,23.84H1.07V1.8a.72.72,0,0,1,.73-.73H3.91l.07.3a1.4,1.4,0,0,0,2.74,0l.06-.3h1.4l.06.3a1.4,1.4,0,0,0,2.74,0l.07-.3h1.39l.06.3a1.4,1.4,0,0,0,2.75,0l.06-.3H16.7l.06.3a1.41,1.41,0,0,0,1.38,1.12,1.4,1.4,0,0,0,1.37-1.12l.06-.3H21l.07.3a1.4,1.4,0,0,0,2.74,0l.06-.3H26a.72.72,0,0,1,.73.73V23.11A.73.73,0,0,1,26,23.84ZM1.82,23.09H25.93V1.8H24.42a2.14,2.14,0,0,1-4,0h-.22a2.17,2.17,0,0,1-2,1.42,2.18,2.18,0,0,1-2-1.42H15.9a2.18,2.18,0,0,1-2,1.42,2.17,2.17,0,0,1-2-1.42h-.21a2.19,2.19,0,0,1-2,1.42,2.17,2.17,0,0,1-2-1.42H7.37a2.15,2.15,0,0,1-4,0H1.8Z" transform="translate(0 0)"/><path class="cls-1" d="M21.13,17a.76.76,0,0,0-.15-.5,1.54,1.54,0,0,0-.56-.35c-.26-.11-.51-.21-.73-.33a2.53,2.53,0,0,1-.58-.38,1.52,1.52,0,0,1-.37-.51,1.62,1.62,0,0,1-.13-.7,1.47,1.47,0,0,1,.46-1.12,2,2,0,0,1,1.23-.52v-.86h.64v.88a1.76,1.76,0,0,1,1.17.61,1.89,1.89,0,0,1,.42,1.27H21.16a1.1,1.1,0,0,0-.16-.65.59.59,0,0,0-.88-.06.72.72,0,0,0-.14.46.64.64,0,0,0,.17.48,1.62,1.62,0,0,0,.54.34,6.64,6.64,0,0,1,.71.33,2.26,2.26,0,0,1,.58.39,1.7,1.7,0,0,1,.38.51,1.51,1.51,0,0,1,.14.7,1.54,1.54,0,0,1-.44,1.13,1.9,1.9,0,0,1-1.2.51v.82h-.64v-.82A2.08,2.08,0,0,1,18.86,18a1.93,1.93,0,0,1-.47-1.35h1.37a1.08,1.08,0,0,0,.2.7.73.73,0,0,0,.58.25.59.59,0,0,0,.44-.17A.64.64,0,0,0,21.13,17Z" transform="translate(0 0)"/><path class="cls-1" d="M21.11,19.71H20v-.85a2.25,2.25,0,0,1-1.29-.66,2.16,2.16,0,0,1-.54-1.52v-.25H20v.25a.85.85,0,0,0,.14.54.47.47,0,0,0,.39.16.32.32,0,0,0,.26-.09.38.38,0,0,0,.08-.28.55.55,0,0,0-.09-.34,1.4,1.4,0,0,0-.46-.28l-.75-.33a3,3,0,0,1-.64-.42,1.7,1.7,0,0,1-.43-.6,1.94,1.94,0,0,1-.15-.8,1.72,1.72,0,0,1,.54-1.3,2.12,2.12,0,0,1,1.15-.56v-.89h1.14v.92a2,2,0,0,1,1.11.65,2.16,2.16,0,0,1,.48,1.44v.25H20.91V14.5A1,1,0,0,0,20.8,14a.35.35,0,0,0-.49,0,.45.45,0,0,0-.08.3.38.38,0,0,0,.1.3,1.3,1.3,0,0,0,.46.29c.26.11.5.22.73.34a3.29,3.29,0,0,1,.63.42,1.94,1.94,0,0,1,.44.59,1.86,1.86,0,0,1,.16.81,1.78,1.78,0,0,1-.51,1.31,2,2,0,0,1-1.13.55Zm-.64-.5h.14v-.79l.23,0A1.61,1.61,0,0,0,21.89,18a1.27,1.27,0,0,0,.36-.95,1.48,1.48,0,0,0-.11-.59,1.38,1.38,0,0,0-.32-.43,3.07,3.07,0,0,0-.53-.36c-.22-.11-.45-.22-.69-.32a2,2,0,0,1-.63-.4.88.88,0,0,1-.24-.65.92.92,0,0,1,.21-.63.85.85,0,0,1,1.27.08,1.28,1.28,0,0,1,.19.55h.87a1.52,1.52,0,0,0-.35-.86,1.61,1.61,0,0,0-1-.53l-.22,0V12h-.14v.84l-.23,0a1.72,1.72,0,0,0-1.08.45,1.24,1.24,0,0,0-.38.94,1.51,1.51,0,0,0,.1.6,1.3,1.3,0,0,0,.32.42,2.25,2.25,0,0,0,.52.35c.22.11.46.22.72.32a1.92,1.92,0,0,1,.65.41,1,1,0,0,1,.21.67.88.88,0,0,1-.22.63.87.87,0,0,1-.62.24,1,1,0,0,1-.77-.33,1.2,1.2,0,0,1-.25-.62h-.87a1.53,1.53,0,0,0,.4.93,1.82,1.82,0,0,0,1.2.53l.22,0Z" transform="translate(0 0)"/></svg>