<?xml version="1.0" encoding="utf-8"?>
<!-- Generator: Adobe Illustrator 23.0.1, SVG Export Plug-In . SVG Version: 6.00 Build 0)  -->
<svg version="1.1" id="Layer_1" xmlns="http://www.w3.org/2000/svg" xmlns:xlink="http://www.w3.org/1999/xlink" x="0px" y="0px"
	 viewBox="0 0 38 38" style="enable-background:new 0 0 38 38;" xml:space="preserve">
<style type="text/css">
	.st0{fill:#7059E4;}
</style>
<title>aaa</title>
<path class="st0" d="M35.5,13.2l-2,3.1c0.4,1.3,0.5,2.6,0.5,3.9c0,8.2-6.7,14.9-14.9,15c-8.2,0-14.9-6.7-15-14.9s6.7-14.9,14.9-15
	c2,0,4.1,0.4,6,1.2L26.6,4c-2.3-1.1-4.9-1.6-7.4-1.6c-9.8,0-17.8,8-17.8,17.8c0,8.3,5.8,15.5,13.9,17.4l0.3,0.1
	c0.4,0.1,0.7,0.1,1,0.2h0.1c1.7,0.2,3.3,0.2,5,0h0.1c0.4,0,0.7-0.1,1-0.2c0.1,0,0.2,0,0.3-0.1c8.2-1.8,14-9,14-17.4
	C37,17.8,36.5,15.4,35.5,13.2z"/>
<circle class="st0" cx="19.3" cy="19" r="4.7"/>
<path class="st0" d="M17.5,24.9h3.3c3.6,0,6.6,3,6.6,6.6l0,0v0.2c0,3.4-2.7,6.1-6.1,6.1h-4.3c-3.4,0-6.1-2.7-6.1-6.1v-0.2
	C10.9,27.8,13.9,24.9,17.5,24.9L17.5,24.9z"/>
<path class="st0" d="M35.3,10l-0.8,1.2L32.8,14l-2.3,3.5c-0.4,0.7-1.3,0.9-2,0.4c0,0,0,0,0,0c-0.7-0.4-0.9-1.3-0.4-2c0,0,0,0,0,0
	l3-4.8l0.4-0.6h-4c-0.5,0-1-0.2-1.3-0.7c-0.3-0.5-0.3-1,0-1.5l0.7-1.1L28.4,5l2.5-4c0.3-0.4,0.7-0.7,1.2-0.7c0.3,0,0.5,0.1,0.8,0.2
	c0.7,0.4,0.9,1.3,0.5,2c0,0,0,0,0,0l-2.6,4.1L30,7.8h4.1c0.8,0,1.4,0.7,1.4,1.5C35.5,9.5,35.4,9.8,35.3,10z"/>
</svg>
