<?xml version="1.0" encoding="utf-8"?>
<!-- Generator: Adobe Illustrator 23.0.1, SVG Export Plug-In . SVG Version: 6.00 Build 0)  -->
<svg version="1.1" id="Layer_1" xmlns="http://www.w3.org/2000/svg" xmlns:xlink="http://www.w3.org/1999/xlink" x="0px" y="0px"
	 viewBox="0 0 39.6 35.3" style="enable-background:new 0 0 39.6 35.3;" xml:space="preserve">
<style type="text/css">
	.st0{fill:#E78346;}
</style>
<title>aaa</title>
<path class="st0" d="M20,35.3c-9.8,0-17.7-7.9-17.7-17.7c0.1-0.8,0.8-1.4,1.6-1.3c0.7,0.1,1.2,0.6,1.3,1.3
	c-0.1,8.2,6.5,14.9,14.7,15c5.7,0.1,10.9-3.1,13.5-8.2c0.4-0.7,1.3-0.9,2-0.5c0.6,0.4,0.8,1.1,0.6,1.7C32.8,31.5,26.7,35.3,20,35.3z
	"/>
<path class="st0" d="M36.3,19.2c-0.8,0-1.4-0.6-1.4-1.4c0,0,0,0,0,0c0-8.2-6.7-14.9-14.9-14.9c-6.7,0-12.5,4.5-14.3,10.9
	c-0.2,0.8-0.9,1.3-1.7,1.1c-0.8-0.2-1.3-0.9-1.1-1.7c0-0.1,0-0.1,0.1-0.2C5.5,3.6,15.3-2,24.7,0.6c7.7,2.1,13,9.1,13,17.1
	C37.7,18.5,37.1,19.2,36.3,19.2C36.3,19.2,36.3,19.2,36.3,19.2z"/>
<circle class="st0" cx="20.1" cy="15.3" r="4.9"/>
<path class="st0" d="M18.4,21.4h3.2c3.9,0,7,3.1,7,7l0,0l0,0c0,3.6-2.9,6.5-6.5,6.5h-4.2c-3.6,0-6.5-2.9-6.5-6.5c0,0,0,0,0,0l0,0
	C11.4,24.5,14.5,21.4,18.4,21.4C18.4,21.4,18.4,21.4,18.4,21.4z"/>
<path class="st0" d="M6.6,20.7c-0.3,0-0.5-0.1-0.7-0.3l-2.2-1.9l-1.9,2C1.4,21,0.7,21,0.3,20.5c-0.4-0.4-0.4-1-0.1-1.4l2.6-2.8
	c0.4-0.4,1.1-0.4,1.5-0.1l3,2.6c0.5,0.4,0.5,1.1,0.1,1.5C7.3,20.6,7,20.7,6.6,20.7L6.6,20.7z"/>
<path class="st0" d="M35.6,21.2c-0.3,0-0.5-0.2-0.6-0.4l-2-2.7c-0.3-0.4-0.2-1,0.2-1.4s1-0.2,1.4,0.2l1.5,2l2.2-1.4
	c0.4-0.3,1-0.2,1.3,0.3c0.3,0.4,0.2,1-0.3,1.3l0,0l-3,2C36.1,21.2,35.8,21.3,35.6,21.2z"/>
</svg>
