<?xml version="1.0" encoding="utf-8"?>
<!-- Generator: Adobe Illustrator 23.0.1, SVG Export Plug-In . SVG Version: 6.00 Build 0)  -->
<svg version="1.1" id="Layer_1" xmlns="http://www.w3.org/2000/svg" xmlns:xlink="http://www.w3.org/1999/xlink" x="0px" y="0px"
	 viewBox="0 0 38.5 38.5" style="enable-background:new 0 0 38.5 38.5;" xml:space="preserve">
<style type="text/css">
	.st0{fill:#5EADA1;}
	.st1{fill:none;stroke:#5EADA1;stroke-width:2.5;stroke-miterlimit:10;}
</style>
<title>asasa</title>
<path class="st0" d="M12.3,15.6v11.7h13.5V15.6H12.3z M21.9,18L19,24.6h-1.5l2.9-6.3h-3.7v-1.2H22L21.9,18z"/>
<path class="st0" d="M25.8,14.3H12.3c-0.8,0-1.5,0.7-1.5,1.5v11.5c0,0.8,0.7,1.5,1.5,1.5h13.5c0.8,0,1.5-0.7,1.5-1.5V15.8
	C27.2,15,26.6,14.3,25.8,14.3z M13.8,16.3h10.5v9.5H13.8V16.3z"/>
<path class="st0" d="M25.7,17.1c-0.8,0-1.5-0.7-1.5-1.5v-2.2H13.8v2.2c0,0.8-0.7,1.5-1.5,1.5s-1.5-0.7-1.5-1.5V12
	c0-0.8,0.7-1.5,1.5-1.5h13.5c0.8,0,1.5,0.7,1.5,1.5v3.7C27.2,16.5,26.6,17.1,25.7,17.1z"/>
<path class="st0" d="M15.3,13.2c-0.8,0-1.5-0.7-1.5-1.5V8.9c0-0.8,0.7-1.5,1.5-1.5s1.5,0.7,1.5,1.5v2.8
	C16.8,12.5,16.1,13.2,15.3,13.2z"/>
<path class="st0" d="M22.8,13.2c-0.8,0-1.5-0.7-1.5-1.5V8.9c0-0.8,0.7-1.5,1.5-1.5s1.5,0.7,1.5,1.5v2.8
	C24.3,12.5,23.5,13.2,22.8,13.2z"/>
<circle class="st1" cx="19.3" cy="19.3" r="18"/>
</svg>
