<?xml version="1.0" encoding="utf-8"?>
<!-- Generator: Adobe Illustrator 23.0.1, SVG Export Plug-In . SVG Version: 6.00 Build 0)  -->
<svg version="1.1" id="Layer_1" xmlns="http://www.w3.org/2000/svg" xmlns:xlink="http://www.w3.org/1999/xlink" x="0px" y="0px"
	 viewBox="0 0 38.5 38.5" style="enable-background:new 0 0 38.5 38.5;" xml:space="preserve">
<style type="text/css">
	.st0{fill:#C2B84A;}
	.st1{fill:#FFFFFF;}
	.st2{fill:none;stroke:#C2B84A;stroke-width:2.5;stroke-miterlimit:10;}
</style>
<title>asasa</title>
<path class="st0" d="M12.3,15.6v11.7h13.5V15.6H12.3z M17.1,17.1c1.1,0.1,1.9,1,1.8,2.1c0,0.6-0.4,1.2-0.9,1.5c0.6,0.3,1,1,1,1.7
	c0,1.2-1,2.3-2.3,2.3c-0.1,0-0.2,0-0.3,0c-1.2,0.1-2.3-0.8-2.4-2c0-0.1,0-0.1,0-0.2v-0.1h1.4v0.1c0,0.6,0.5,1,1,1l0,0
	c0.6,0,1-0.4,1.1-0.9v-0.1c0-0.7-0.4-1.1-1.2-1.1h-0.8v-1.2h0.9c0.4,0,1.1-0.1,1.1-1c0.1-0.5-0.2-0.9-0.7-1c-0.1,0-0.2,0-0.3,0
	c-0.5-0.1-0.9,0.3-1,0.8v0.1v0.1h-1.4v-0.1c0-1.1,0.8-1.9,1.9-2L17.1,17.1z M23.4,24.6H22v-5.8l-1.8,0.6v-1.3l3-1.1h0.3L23.4,24.6z"
	/>
<path class="st0" d="M25.7,14.3H12.3c-0.8,0-1.5,0.7-1.5,1.5v11.6c0,0.8,0.7,1.5,1.5,1.5h13.5c0.8,0,1.5-0.7,1.5-1.5V15.7
	C27.2,14.9,26.6,14.3,25.7,14.3z M24.2,16.9v8.6H13.8v-8.6H24.2z"/>
<path class="st0" d="M25.7,17.1c-0.8,0-1.5-0.7-1.5-1.5v-2.2H13.8v2.2c0,0.8-0.7,1.5-1.5,1.5s-1.5-0.7-1.5-1.5V12
	c0-0.8,0.7-1.5,1.5-1.5h13.5c0.8,0,1.5,0.7,1.5,1.5v3.7C27.2,16.5,26.6,17.1,25.7,17.1z"/>
<path class="st1" d="M16.5,17.1c-0.2,0-0.4,0-0.6,0.1h1.2C16.9,17.1,16.7,17.1,16.5,17.1z"/>
<path class="st0" d="M15.3,13.3c-0.8,0-1.5-0.7-1.5-1.5V9c0-0.8,0.7-1.5,1.5-1.5s1.5,0.7,1.5,1.5v2.8C16.8,12.6,16.1,13.3,15.3,13.3
	z"/>
<path class="st0" d="M22.8,13.3c-0.8,0-1.5-0.7-1.5-1.5V9c0-0.8,0.7-1.5,1.5-1.5s1.5,0.7,1.5,1.5v2.8C24.3,12.6,23.5,13.3,22.8,13.3
	z"/>
<circle class="st2" cx="19.3" cy="19.3" r="18"/>
</svg>
