<svg id="Layer_1" data-name="Layer 1" xmlns="http://www.w3.org/2000/svg" viewBox="0 0 25 25"><defs><style>.cls-1{fill:#00b5c5;}</style></defs><title>KPI</title><path class="cls-1" d="M12.5,2A10.5,10.5,0,1,1,2,12.5,10.5,10.5,0,0,1,12.5,2m0-2A12.5,12.5,0,1,0,25,12.5,12.5,12.5,0,0,0,12.5,0Z"/><circle class="cls-1" cx="7.97" cy="12.36" r="0.54"/><path class="cls-1" d="M8,13.15a.79.79,0,1,1,.79-.79h0A.79.79,0,0,1,8,13.15Zm0-1.08a.29.29,0,0,0,0,.58H8a.29.29,0,0,0,0-.58Z"/><circle class="cls-1" cx="11.08" cy="9.79" r="0.54"/><path class="cls-1" d="M11.08,10.59a.8.8,0,1,1,.79-.81h0A.8.8,0,0,1,11.08,10.59Zm0-1.09a.3.3,0,1,0,.29.31v0A.29.29,0,0,0,11.08,9.5Z"/><circle class="cls-1" cx="14.14" cy="10.88" r="0.54"/><path class="cls-1" d="M14.14,11.67a.83.83,0,0,1-.52-.19.8.8,0,0,1-.08-1.12h0a.8.8,0,0,1,1.12-.08.79.79,0,0,1,.27.55.75.75,0,0,1-.19.57.79.79,0,0,1-.55.27Zm-.22-1a.3.3,0,0,0,0,.41.27.27,0,0,0,.21.07.26.26,0,0,0,.2-.1.27.27,0,0,0,.07-.21.26.26,0,0,0-.1-.2.28.28,0,0,0-.38,0Z"/><circle class="cls-1" cx="17.17" cy="7.26" r="0.54"/><path class="cls-1" d="M17.17,8.05a.78.78,0,0,1-.79-.74.8.8,0,0,1,.2-.57h0a.8.8,0,0,1,1.12-.08.79.79,0,0,1,.09,1.11A.82.82,0,0,1,17.17,8.05Zm0-1.08h0a.26.26,0,0,0-.2.1h0a.31.31,0,0,0-.07.21.3.3,0,0,0,.1.2.29.29,0,0,0,.41,0h0a.3.3,0,0,0,0-.41A.29.29,0,0,0,17.17,7Z"/><rect class="cls-1" x="8.02" y="10.8" width="2.96" height="0.5" transform="translate(-4.91 8.92) rotate(-40.88)"/><rect class="cls-1" x="12.37" y="9.19" width="0.5" height="2.18" transform="translate(-1.48 18.41) rotate(-69.12)"/><rect class="cls-1" x="13.84" y="8.82" width="3.64" height="0.5" transform="translate(-1.31 15.35) rotate(-50.4)"/><path class="cls-1" d="M7.46,18.43H8.54a.21.21,0,0,0,.22-.2h0v-2A.22.22,0,0,0,8.54,16H7.44a.22.22,0,0,0-.22.22v2a.21.21,0,0,0,.21.21Z"/><path class="cls-1" d="M8.54,18.68H7.46A.47.47,0,0,1,7,18.22H7v-2a.48.48,0,0,1,.47-.47h1.1a.47.47,0,0,1,.47.47H9v2a.46.46,0,0,1-.48.46Zm-1-.5h1v-2H7.47Z"/><path class="cls-1" d="M10.54,18.43h1.09a.21.21,0,0,0,.22-.2h0V13.69a.22.22,0,0,0-.22-.22H10.52a.21.21,0,0,0-.21.21h0v4.53a.21.21,0,0,0,.21.21Z"/><path class="cls-1" d="M11.63,18.68H10.54a.48.48,0,0,1-.46-.46V13.69a.41.41,0,0,1,.13-.33.47.47,0,0,1,.33-.14h1.11a.47.47,0,0,1,.47.47h0v4.52a.47.47,0,0,1-.47.47Zm-1.06-.5h1.06V13.69H10.55Z"/><path class="cls-1" d="M13.61,18.48h1.08a.22.22,0,0,0,.22-.22V14.53a.21.21,0,0,0-.21-.21H13.59a.22.22,0,0,0-.22.22h0v3.73a.21.21,0,0,0,.21.21Z"/><path class="cls-1" d="M14.69,18.73H13.61a.47.47,0,0,1-.47-.46V14.54a.48.48,0,0,1,.14-.34.46.46,0,0,1,.33-.13h1.1a.47.47,0,0,1,.47.47h0v3.72a.47.47,0,0,1-.47.47Zm-1-.5h1V14.54H13.62Z"/><path class="cls-1" d="M16.64,18.43h1.09a.21.21,0,0,0,.22-.2h0V11a.22.22,0,0,0-.22-.22H16.62a.22.22,0,0,0-.22.22v7.18a.22.22,0,0,0,.16.25Z"/><path class="cls-1" d="M17.73,18.68H16.64a.47.47,0,0,1-.47-.46V11a.47.47,0,0,1,.47-.47h1.11a.47.47,0,0,1,.47.47v7.17a.47.47,0,0,1-.47.47Zm-1.06-.5h1.06V11H16.65Z"/></svg>