<?xml version="1.0" encoding="utf-8"?>
<!-- Generator: Adobe Illustrator 23.0.1, SVG Export Plug-In . SVG Version: 6.00 Build 0)  -->
<svg version="1.1" id="Layer_1" xmlns="http://www.w3.org/2000/svg" xmlns:xlink="http://www.w3.org/1999/xlink" x="0px" y="0px"
	 viewBox="0 0 38 38" style="enable-background:new 0 0 38 38;" xml:space="preserve">
<style type="text/css">
	.st0{fill:#EABE42;}
	.st1{fill:#EDBF40;}
	.st2{fill:#FFFFFF;}
	.st3{fill:#EABD3F;}
</style>
<title>aaa</title>
<path class="st0" d="M19,0.5C8.8,0.5,0.5,8.8,0.5,19S8.8,37.5,19,37.5S37.5,29.2,37.5,19l0,0C37.5,8.8,29.2,0.5,19,0.5z M19,34.5
	c-8.6,0-15.5-6.9-15.6-15.5S10.3,3.5,18.9,3.4c3.9,0,7.6,1.4,10.5,4c0.7,0.7,1.4,1.4,2,2.2c5.1,6.8,3.8,16.6-3.1,21.7
	C25.6,33.4,22.4,34.5,19,34.5L19,34.5z"/>
<path class="st1" d="M27.5,12.1L27.5,12.1c-0.1-0.2-0.3-0.3-0.4-0.5l0,0c-0.1-0.1-0.3-0.3-0.4-0.4C22.4,7,15.4,7,11.1,11.3
	s-4.3,11.3,0.1,15.6s11.3,4.3,15.6-0.1C30.7,22.8,31,16.5,27.5,12.1L27.5,12.1z M21.3,19.8c-0.5,0.8-1.5,0.9-2.3,0.4
	c-0.1-0.1-0.2-0.2-0.3-0.3c-0.6-0.8-0.5-1.9,0.2-2.5c0,0,0.1-0.1,0.1-0.1l8-5.6l0,0L21.3,19.8z"/>
<path class="st2" d="M27,11.7L27,11.8l0,0L27,11.7z"/>
<path class="st3" d="M31.8,9l-0.2,0.2l-1.9,1.8c-0.4,0.3-0.9,0.4-1.3,0.2l0,0c-0.2-0.1-0.3-0.2-0.4-0.3l0,0
	c-0.1-0.1-0.2-0.3-0.2-0.4c-0.2-0.4-0.1-1,0.3-1.3l1.9-1.8l0.2-0.1c0.5-0.5,1.3-0.4,1.7,0.1C32.3,7.7,32.3,8.5,31.8,9L31.8,9z"/>
</svg>
