<svg id="Слой_1" data-name="Слой 1" xmlns="http://www.w3.org/2000/svg" viewBox="0 0 33.3 33.3"><defs><style>.cls-1{fill:#269999;}</style></defs><title>3</title><path class="cls-1" d="M16.65,33.3A16.65,16.65,0,1,1,33.3,16.65,16.67,16.67,0,0,1,16.65,33.3Zm0-31.3A14.65,14.65,0,1,0,31.3,16.65,14.66,14.66,0,0,0,16.65,2Z"/><path class="cls-1" d="M25.49,14.12H22.06V11.86a1.13,1.13,0,0,0-1.93-.8l-4.52,4.52a1.13,1.13,0,0,0,0,1.6l2.6,2.59-3.16,3.16a1.13,1.13,0,0,0,1.6,1.6l4-4a1.13,1.13,0,0,0,0-1.6L18,16.38l1.79-1.79v.66a1.14,1.14,0,0,0,1.13,1.13h4.56a1.13,1.13,0,1,0,0-2.26Z"/><path class="cls-1" d="M17.89,8.38a1.13,1.13,0,0,0-1.43.14l-3.11,3.11A1.13,1.13,0,1,0,15,13.22l2.46-2.45.82.6,1.11-1.11A2.42,2.42,0,0,1,20,9.82Z"/><path class="cls-1" d="M14.82,18a2.23,2.23,0,0,1-.58-1l-6,6a1.13,1.13,0,0,0,1.6,1.6l5.74-5.75Z"/><circle class="cls-1" cx="22.63" cy="9.04" r="1.7"/></svg>