<svg id="Слой_1" data-name="Слой 1" xmlns="http://www.w3.org/2000/svg" xmlns:xlink="http://www.w3.org/1999/xlink" viewBox="0 0 33.3 33.3"><defs><style>.cls-1{fill:#20a9d6;}.cls-2{fill:url(#Безымянный_градиент_2);}</style><radialGradient id="Безымянный_градиент_2" cx="16.36" cy="16.56" r="8.4" gradientUnits="userSpaceOnUse"><stop offset="0" stop-color="#fff"/><stop offset="0.28" stop-color="#9fdaed"/><stop offset="0.57" stop-color="#44b7dd"/><stop offset="0.7" stop-color="#20a9d6"/></radialGradient></defs><title>4</title><path class="cls-1" d="M16.65,33.3A16.65,16.65,0,1,1,33.3,16.65,16.67,16.67,0,0,1,16.65,33.3Zm0-31.3A14.65,14.65,0,1,0,31.3,16.65,14.66,14.66,0,0,0,16.65,2Z"/><path class="cls-2" d="M16.38,7.39l-6.15,5.82a4.74,4.74,0,0,0,4.89,7.84v2.17H13.87v2.51h5V23.22H17.63V21.08a4.69,4.69,0,0,0,4.89-1.14,4.79,4.79,0,0,0,0-6.76Z"/></svg>