<svg id="Слой_1" data-name="Слой 1" xmlns="http://www.w3.org/2000/svg" xmlns:xlink="http://www.w3.org/1999/xlink" viewBox="0 0 33.3 33.3"><defs><style>.cls-1{fill:url(#Безымянный_градиент_5);}.cls-2{fill:#a1586c;}</style><radialGradient id="Безымянный_градиент_5" cx="16.7" cy="17.25" r="8.45" gradientUnits="userSpaceOnUse"><stop offset="0" stop-color="#fff"/><stop offset="0.41" stop-color="#fefdfd"/><stop offset="0.55" stop-color="#faf6f7"/><stop offset="0.66" stop-color="#f3ebed"/><stop offset="0.74" stop-color="#eadade"/><stop offset="0.81" stop-color="#dec4cb"/><stop offset="0.88" stop-color="#cea8b3"/><stop offset="0.93" stop-color="#bc8896"/><stop offset="0.99" stop-color="#a86476"/><stop offset="1" stop-color="#a1586c"/></radialGradient></defs><title>5</title><path class="cls-1" d="M25.1,17.36a8.4,8.4,0,0,1-16.8,0,10.42,10.42,0,0,1,4.59-8.5c1.1-.69,2.35,1.9,3.68,1.9s2.82-2.51,4-1.71A10.45,10.45,0,0,1,25.1,17.36Z"/><path class="cls-2" d="M16.65,33.3A16.65,16.65,0,1,1,33.3,16.65,16.67,16.67,0,0,1,16.65,33.3Zm0-31.3A14.65,14.65,0,1,0,31.3,16.65,14.66,14.66,0,0,0,16.65,2Z"/><path class="cls-2" d="M20.5,25.94A9.5,9.5,0,0,0,19.12,8.18V6.44H13.9V8.18a9.5,9.5,0,0,0-1.38,17.76M22.8,12.24a8.14,8.14,0,0,1,1.76,4.37h-6a2.41,2.41,0,0,0-.39-.68l3-5.22A8.24,8.24,0,0,1,22.8,12.24ZM15.06,7.65H18v.91L16.51,10,15.06,8.56Zm-.81,1.91,2.26,2.26,2.26-2.26a8,8,0,0,1,1.15.43l-3,5.23a1.92,1.92,0,0,0-.78,0L13.1,10A8.43,8.43,0,0,1,14.25,9.56Zm3,7.76a.71.71,0,1,1-.71-.71A.71.71,0,0,1,17.22,17.32Zm-7-5.11a7.94,7.94,0,0,1,1.62-1.5l3,5.22a2.22,2.22,0,0,0-.4.68h-6A8.17,8.17,0,0,1,10.25,12.21Zm1.62,11.72A8.13,8.13,0,0,1,8.46,18h6a2.22,2.22,0,0,0,.4.68Zm.65,2a14.27,14.27,0,0,0,4,.6,14.21,14.21,0,0,0,4-.6m-4-.54a7.88,7.88,0,0,1-3.4-.76l3-5.22a1.92,1.92,0,0,0,.78,0l3,5.22A8,8,0,0,1,16.51,25.4Zm4.64-1.47-3-5.22a2.41,2.41,0,0,0,.39-.68h6A8.1,8.1,0,0,1,21.15,23.93Z"/><path class="cls-2" d="M16.5,26.89A9.54,9.54,0,0,1,12.66,8.62l.47,1.18a8.2,8.2,0,0,0-4.67,7.55,8,8,0,1,0,16.07,0,8.16,8.16,0,0,0-5.37-7.73l.44-1.29a9.54,9.54,0,0,1-3.1,18.56Z"/></svg>